<svg xmlns="http://www.w3.org/2000/svg" xmlns:xlink="http://www.w3.org/1999/xlink" width="503" zoomAndPan="magnify" viewBox="0 0 377.25 417.749988" height="557" preserveAspectRatio="xMidYMid meet" version="1.0"><defs><g/><clipPath id="cee857ccc8"><path d="M 76.191406 139.125 L 300 139.125 L 300 317.25 L 76.191406 317.25 Z M 76.191406 139.125 " clip-rule="nonzero"/></clipPath><clipPath id="567132ad64"><path d="M 98.644531 139.125 L 277.140625 139.125 C 289.539062 139.125 299.59375 149.179688 299.59375 161.582031 L 299.59375 294.796875 C 299.59375 307.199219 289.539062 317.25 277.140625 317.25 L 98.644531 317.25 C 86.242188 317.25 76.191406 307.199219 76.191406 294.796875 L 76.191406 161.582031 C 76.191406 149.179688 86.242188 139.125 98.644531 139.125 Z M 98.644531 139.125 " clip-rule="nonzero"/></clipPath><clipPath id="4584c12aaa"><path d="M 76.191406 139.128906 L 299.246094 139.128906 L 299.246094 317.273438 L 76.191406 317.273438 Z M 76.191406 139.128906 " clip-rule="nonzero"/></clipPath><clipPath id="c3260fd514"><path d="M 98.644531 139.128906 L 277.132812 139.128906 C 289.53125 139.128906 299.585938 149.179688 299.585938 161.582031 L 299.585938 294.792969 C 299.585938 307.195312 289.53125 317.246094 277.132812 317.246094 L 98.644531 317.246094 C 86.242188 317.246094 76.191406 307.195312 76.191406 294.792969 L 76.191406 161.582031 C 76.191406 149.179688 86.242188 139.128906 98.644531 139.128906 Z M 98.644531 139.128906 " clip-rule="nonzero"/></clipPath></defs><g clip-path="url(#cee857ccc8)"><g clip-path="url(#567132ad64)"><path fill="#ffffff" d="M 76.191406 139.125 L 299.542969 139.125 L 299.542969 317.25 L 76.191406 317.25 Z M 76.191406 139.125 " fill-opacity="1" fill-rule="nonzero"/></g></g><g clip-path="url(#4584c12aaa)"><g clip-path="url(#c3260fd514)"><path stroke-linecap="butt" transform="matrix(0.748512, 0, 0, 0.748512, 76.18973, 139.127927)" fill="none" stroke-linejoin="miter" d="M 29.999256 0.00130804 L 268.456756 0.00130804 C 285.020871 0.00130804 298.453773 13.428992 298.453773 29.998325 L 298.453773 207.966015 C 298.453773 224.535349 285.020871 237.963032 268.456756 237.963032 L 29.999256 237.963032 C 13.429923 237.963032 0.0022392 224.535349 0.0022392 207.966015 L 0.0022392 29.998325 C 0.0022392 13.428992 13.429923 0.00130804 29.999256 0.00130804 Z M 29.999256 0.00130804 " stroke="#000000" stroke-width="8" stroke-opacity="1" stroke-miterlimit="4"/></g></g><g fill="#000000" fill-opacity="1"><g transform="translate(136.77241, 237.181126)"><g><path d="M 9.0625 0.234375 C 7.625 0.234375 6.34375 -0.09375 5.21875 -0.75 C 4.101562 -1.40625 3.226562 -2.363281 2.59375 -3.625 C 1.957031 -4.894531 1.640625 -6.414062 1.640625 -8.1875 C 1.640625 -9.957031 1.957031 -11.472656 2.59375 -12.734375 C 3.226562 -14.003906 4.101562 -14.96875 5.21875 -15.625 C 6.34375 -16.289062 7.625 -16.625 9.0625 -16.625 C 10.59375 -16.625 11.863281 -16.332031 12.875 -15.75 C 13.894531 -15.175781 14.628906 -14.304688 15.078125 -13.140625 L 13.84375 -12.3125 L 13.5625 -12.3125 C 13.113281 -13.25 12.53125 -13.910156 11.8125 -14.296875 C 11.09375 -14.691406 10.175781 -14.890625 9.0625 -14.890625 C 8.03125 -14.890625 7.113281 -14.660156 6.3125 -14.203125 C 5.507812 -13.742188 4.875 -13.015625 4.40625 -12.015625 C 3.9375 -11.023438 3.703125 -9.75 3.703125 -8.1875 C 3.703125 -6.632812 3.9375 -5.359375 4.40625 -4.359375 C 4.875 -3.367188 5.507812 -2.644531 6.3125 -2.1875 C 7.113281 -1.726562 8.03125 -1.5 9.0625 -1.5 C 10.25 -1.5 11.21875 -1.765625 11.96875 -2.296875 C 12.726562 -2.835938 13.289062 -3.703125 13.65625 -4.890625 L 13.9375 -4.890625 L 15.21875 -4.265625 C 14.832031 -2.804688 14.113281 -1.691406 13.0625 -0.921875 C 12.007812 -0.148438 10.675781 0.234375 9.0625 0.234375 Z M 9.0625 0.234375 "/></g></g></g><g fill="#000000" fill-opacity="1"><g transform="translate(152.839489, 237.181126)"><g><path d="M 4.921875 0.234375 C 4.046875 0.234375 3.359375 -0.0078125 2.859375 -0.5 C 2.359375 -1 2.109375 -1.742188 2.109375 -2.734375 L 2.109375 -17.328125 L 3.9375 -17.328125 L 3.9375 -2.859375 C 3.9375 -2.335938 4.035156 -1.960938 4.234375 -1.734375 C 4.429688 -1.515625 4.738281 -1.40625 5.15625 -1.40625 C 5.40625 -1.40625 5.660156 -1.445312 5.921875 -1.53125 L 6.078125 -1.484375 L 6.296875 -0.046875 C 6.160156 0.046875 5.96875 0.113281 5.71875 0.15625 C 5.46875 0.207031 5.203125 0.234375 4.921875 0.234375 Z M 4.921875 0.234375 "/></g></g></g><g fill="#000000" fill-opacity="1"><g transform="translate(159.562116, 237.181126)"><g><path d="M 5.09375 0.234375 C 3.875 0.234375 2.921875 -0.0820312 2.234375 -0.71875 C 1.554688 -1.351562 1.21875 -2.257812 1.21875 -3.4375 C 1.21875 -4.175781 1.367188 -4.796875 1.671875 -5.296875 C 1.972656 -5.796875 2.441406 -6.203125 3.078125 -6.515625 C 3.710938 -6.835938 4.539062 -7.085938 5.5625 -7.265625 C 6.46875 -7.410156 7.148438 -7.578125 7.609375 -7.765625 C 8.078125 -7.953125 8.390625 -8.160156 8.546875 -8.390625 C 8.710938 -8.617188 8.796875 -8.910156 8.796875 -9.265625 C 8.796875 -9.828125 8.601562 -10.253906 8.21875 -10.546875 C 7.832031 -10.847656 7.210938 -11 6.359375 -11 C 5.566406 -11 4.882812 -10.84375 4.3125 -10.53125 C 3.738281 -10.226562 3.210938 -9.769531 2.734375 -9.15625 L 2.515625 -9.15625 L 1.609375 -10.421875 C 2.128906 -11.085938 2.789062 -11.613281 3.59375 -12 C 4.40625 -12.394531 5.328125 -12.59375 6.359375 -12.59375 C 7.816406 -12.59375 8.890625 -12.273438 9.578125 -11.640625 C 10.273438 -11.003906 10.625 -10.117188 10.625 -8.984375 L 10.625 -2.4375 C 10.625 -1.75 10.914062 -1.40625 11.5 -1.40625 C 11.695312 -1.40625 11.882812 -1.4375 12.0625 -1.5 L 12.21875 -1.453125 L 12.421875 -0.1875 C 12.296875 -0.101562 12.117188 -0.0351562 11.890625 0.015625 C 11.671875 0.0664062 11.445312 0.09375 11.21875 0.09375 C 10.539062 0.09375 10.023438 -0.0546875 9.671875 -0.359375 C 9.328125 -0.660156 9.109375 -1.101562 9.015625 -1.6875 L 8.78125 -1.703125 C 8.425781 -1.054688 7.945312 -0.570312 7.34375 -0.25 C 6.75 0.0703125 6 0.234375 5.09375 0.234375 Z M 5.5 -1.21875 C 6.1875 -1.21875 6.78125 -1.375 7.28125 -1.6875 C 7.789062 -2.007812 8.179688 -2.457031 8.453125 -3.03125 C 8.722656 -3.613281 8.859375 -4.28125 8.859375 -5.03125 L 8.859375 -6.59375 L 8.640625 -6.640625 C 8.359375 -6.453125 8.019531 -6.289062 7.625 -6.15625 C 7.226562 -6.03125 6.675781 -5.914062 5.96875 -5.8125 C 5.25 -5.707031 4.675781 -5.550781 4.25 -5.34375 C 3.832031 -5.144531 3.535156 -4.890625 3.359375 -4.578125 C 3.179688 -4.273438 3.09375 -3.894531 3.09375 -3.4375 C 3.09375 -2.71875 3.304688 -2.164062 3.734375 -1.78125 C 4.160156 -1.40625 4.75 -1.21875 5.5 -1.21875 Z M 5.5 -1.21875 "/></g></g></g><g fill="#000000" fill-opacity="1"><g transform="translate(172.346312, 237.181126)"><g><path d="M 5.640625 0.234375 C 4.859375 0.234375 4.132812 0.132812 3.46875 -0.0625 C 2.8125 -0.269531 2.253906 -0.550781 1.796875 -0.90625 C 1.347656 -1.269531 1.03125 -1.675781 0.84375 -2.125 L 1.921875 -3.25 L 2.15625 -3.25 C 2.550781 -2.632812 3.03125 -2.171875 3.59375 -1.859375 C 4.164062 -1.554688 4.847656 -1.40625 5.640625 -1.40625 C 6.546875 -1.40625 7.234375 -1.582031 7.703125 -1.9375 C 8.179688 -2.289062 8.421875 -2.785156 8.421875 -3.421875 C 8.421875 -3.898438 8.273438 -4.296875 7.984375 -4.609375 C 7.703125 -4.929688 7.238281 -5.171875 6.59375 -5.328125 L 4.515625 -5.84375 C 3.398438 -6.113281 2.585938 -6.539062 2.078125 -7.125 C 1.566406 -7.707031 1.3125 -8.429688 1.3125 -9.296875 C 1.3125 -9.960938 1.484375 -10.546875 1.828125 -11.046875 C 2.171875 -11.546875 2.664062 -11.925781 3.3125 -12.1875 C 3.957031 -12.457031 4.722656 -12.59375 5.609375 -12.59375 C 6.742188 -12.59375 7.640625 -12.429688 8.296875 -12.109375 C 8.953125 -11.796875 9.460938 -11.359375 9.828125 -10.796875 L 8.796875 -9.78125 L 8.578125 -9.78125 C 8.179688 -10.238281 7.75 -10.566406 7.28125 -10.765625 C 6.8125 -10.972656 6.253906 -11.078125 5.609375 -11.078125 C 4.796875 -11.078125 4.171875 -10.929688 3.734375 -10.640625 C 3.304688 -10.347656 3.09375 -9.925781 3.09375 -9.375 C 3.09375 -8.875 3.242188 -8.46875 3.546875 -8.15625 C 3.859375 -7.851562 4.394531 -7.609375 5.15625 -7.421875 L 7.203125 -6.921875 C 8.285156 -6.671875 9.0625 -6.25 9.53125 -5.65625 C 10.007812 -5.070312 10.25 -4.332031 10.25 -3.4375 C 10.25 -2.71875 10.078125 -2.078125 9.734375 -1.515625 C 9.390625 -0.960938 8.867188 -0.53125 8.171875 -0.21875 C 7.484375 0.0820312 6.640625 0.234375 5.640625 0.234375 Z M 5.640625 0.234375 "/></g></g></g><g fill="#000000" fill-opacity="1"><g transform="translate(183.774778, 237.181126)"><g><path d="M 5.640625 0.234375 C 4.859375 0.234375 4.132812 0.132812 3.46875 -0.0625 C 2.8125 -0.269531 2.253906 -0.550781 1.796875 -0.90625 C 1.347656 -1.269531 1.03125 -1.675781 0.84375 -2.125 L 1.921875 -3.25 L 2.15625 -3.25 C 2.550781 -2.632812 3.03125 -2.171875 3.59375 -1.859375 C 4.164062 -1.554688 4.847656 -1.40625 5.640625 -1.40625 C 6.546875 -1.40625 7.234375 -1.582031 7.703125 -1.9375 C 8.179688 -2.289062 8.421875 -2.785156 8.421875 -3.421875 C 8.421875 -3.898438 8.273438 -4.296875 7.984375 -4.609375 C 7.703125 -4.929688 7.238281 -5.171875 6.59375 -5.328125 L 4.515625 -5.84375 C 3.398438 -6.113281 2.585938 -6.539062 2.078125 -7.125 C 1.566406 -7.707031 1.3125 -8.429688 1.3125 -9.296875 C 1.3125 -9.960938 1.484375 -10.546875 1.828125 -11.046875 C 2.171875 -11.546875 2.664062 -11.925781 3.3125 -12.1875 C 3.957031 -12.457031 4.722656 -12.59375 5.609375 -12.59375 C 6.742188 -12.59375 7.640625 -12.429688 8.296875 -12.109375 C 8.953125 -11.796875 9.460938 -11.359375 9.828125 -10.796875 L 8.796875 -9.78125 L 8.578125 -9.78125 C 8.179688 -10.238281 7.75 -10.566406 7.28125 -10.765625 C 6.8125 -10.972656 6.253906 -11.078125 5.609375 -11.078125 C 4.796875 -11.078125 4.171875 -10.929688 3.734375 -10.640625 C 3.304688 -10.347656 3.09375 -9.925781 3.09375 -9.375 C 3.09375 -8.875 3.242188 -8.46875 3.546875 -8.15625 C 3.859375 -7.851562 4.394531 -7.609375 5.15625 -7.421875 L 7.203125 -6.921875 C 8.285156 -6.671875 9.0625 -6.25 9.53125 -5.65625 C 10.007812 -5.070312 10.25 -4.332031 10.25 -3.4375 C 10.25 -2.71875 10.078125 -2.078125 9.734375 -1.515625 C 9.390625 -0.960938 8.867188 -0.53125 8.171875 -0.21875 C 7.484375 0.0820312 6.640625 0.234375 5.640625 0.234375 Z M 5.640625 0.234375 "/></g></g></g><g fill="#000000" fill-opacity="1"><g transform="translate(195.203244, 237.181126)"><g><path d="M 3.078125 -14.75 C 2.679688 -14.75 2.363281 -14.867188 2.125 -15.109375 C 1.882812 -15.359375 1.765625 -15.664062 1.765625 -16.03125 C 1.765625 -16.40625 1.882812 -16.710938 2.125 -16.953125 C 2.363281 -17.203125 2.679688 -17.328125 3.078125 -17.328125 C 3.460938 -17.328125 3.773438 -17.203125 4.015625 -16.953125 C 4.253906 -16.710938 4.375 -16.40625 4.375 -16.03125 C 4.375 -15.664062 4.253906 -15.359375 4.015625 -15.109375 C 3.773438 -14.867188 3.460938 -14.75 3.078125 -14.75 Z M 2.15625 0 L 2.15625 -12.359375 L 3.984375 -12.359375 L 3.984375 0 Z M 2.15625 0 "/></g></g></g><g fill="#000000" fill-opacity="1"><g transform="translate(201.332039, 237.181126)"><g><path d="M 2.75 0 L 2.75 -10.875 L 0.609375 -10.875 L 0.609375 -12.375 L 2.75 -12.375 C 2.625 -12.914062 2.5625 -13.425781 2.5625 -13.90625 C 2.5625 -14.707031 2.726562 -15.378906 3.0625 -15.921875 C 3.40625 -16.472656 3.878906 -16.882812 4.484375 -17.15625 C 5.085938 -17.425781 5.785156 -17.5625 6.578125 -17.5625 C 7.804688 -17.5625 8.753906 -17.296875 9.421875 -16.765625 L 8.703125 -15.484375 L 8.46875 -15.4375 C 7.988281 -15.820312 7.359375 -16.015625 6.578125 -16.015625 C 5.847656 -16.015625 5.296875 -15.828125 4.921875 -15.453125 C 4.554688 -15.078125 4.375 -14.546875 4.375 -13.859375 C 4.375 -13.429688 4.441406 -12.9375 4.578125 -12.375 L 8.515625 -12.375 L 8.515625 -10.875 L 4.578125 -10.875 L 4.578125 0 Z M 2.75 0 "/></g></g></g><g fill="#000000" fill-opacity="1"><g transform="translate(210.13868, 237.181126)"><g><path d="M 3.078125 -14.75 C 2.679688 -14.75 2.363281 -14.867188 2.125 -15.109375 C 1.882812 -15.359375 1.765625 -15.664062 1.765625 -16.03125 C 1.765625 -16.40625 1.882812 -16.710938 2.125 -16.953125 C 2.363281 -17.203125 2.679688 -17.328125 3.078125 -17.328125 C 3.460938 -17.328125 3.773438 -17.203125 4.015625 -16.953125 C 4.253906 -16.710938 4.375 -16.40625 4.375 -16.03125 C 4.375 -15.664062 4.253906 -15.359375 4.015625 -15.109375 C 3.773438 -14.867188 3.460938 -14.75 3.078125 -14.75 Z M 2.15625 0 L 2.15625 -12.359375 L 3.984375 -12.359375 L 3.984375 0 Z M 2.15625 0 "/></g></g></g><g fill="#000000" fill-opacity="1"><g transform="translate(216.267475, 237.181126)"><g><path d="M 11.78125 -5.765625 L 3.28125 -5.765625 C 3.332031 -4.265625 3.691406 -3.160156 4.359375 -2.453125 C 5.035156 -1.753906 5.953125 -1.40625 7.109375 -1.40625 C 7.992188 -1.40625 8.703125 -1.5625 9.234375 -1.875 C 9.773438 -2.1875 10.203125 -2.675781 10.515625 -3.34375 L 10.75 -3.34375 L 11.9375 -2.640625 C 11.570312 -1.742188 10.992188 -1.039062 10.203125 -0.53125 C 9.421875 -0.0195312 8.390625 0.234375 7.109375 0.234375 C 5.921875 0.234375 4.894531 0 4.03125 -0.46875 C 3.175781 -0.9375 2.515625 -1.648438 2.046875 -2.609375 C 1.585938 -3.566406 1.359375 -4.753906 1.359375 -6.171875 C 1.359375 -7.578125 1.601562 -8.757812 2.09375 -9.71875 C 2.582031 -10.6875 3.25 -11.40625 4.09375 -11.875 C 4.945312 -12.351562 5.914062 -12.59375 7 -12.59375 C 8.582031 -12.59375 9.816406 -12.144531 10.703125 -11.25 C 11.597656 -10.363281 12.050781 -9.039062 12.0625 -7.28125 C 12.0625 -6.59375 12.046875 -6.128906 12.015625 -5.890625 Z M 10.25 -7.28125 C 10.21875 -8.59375 9.925781 -9.546875 9.375 -10.140625 C 8.820312 -10.742188 8.03125 -11.046875 7 -11.046875 C 5.914062 -11.046875 5.066406 -10.742188 4.453125 -10.140625 C 3.835938 -9.546875 3.460938 -8.59375 3.328125 -7.28125 Z M 10.25 -7.28125 "/></g></g></g><g fill="#000000" fill-opacity="1"><g transform="translate(229.443825, 237.181126)"><g><path d="M 2.15625 0 L 2.15625 -12.359375 L 3.890625 -12.359375 L 3.890625 -10.421875 L 4.125 -10.359375 C 4.695312 -11.765625 5.78125 -12.46875 7.375 -12.46875 C 8.21875 -12.46875 8.847656 -12.316406 9.265625 -12.015625 L 8.796875 -10.46875 L 8.578125 -10.421875 C 8.109375 -10.648438 7.597656 -10.765625 7.046875 -10.765625 C 6.054688 -10.765625 5.296875 -10.394531 4.765625 -9.65625 C 4.242188 -8.914062 3.984375 -7.71875 3.984375 -6.0625 L 3.984375 0 Z M 2.15625 0 "/></g></g></g><g fill="#000000" fill-opacity="1"><g transform="translate(11.337415, 30.123727)"><g><path d="M 7.75 0 L 5.015625 0 L 0.953125 -17.71875 L 3.015625 -17.71875 L 6.359375 -3.0625 L 6.65625 -3.0625 L 10.625 -17.71875 L 12.5625 -17.71875 L 16.53125 -3.0625 L 16.84375 -3.0625 L 20.1875 -17.71875 L 22.1875 -17.71875 L 18.140625 0 L 15.390625 0 L 11.703125 -13.421875 L 11.4375 -13.421875 Z M 7.75 0 "/></g></g></g><g fill="#000000" fill-opacity="1"><g transform="translate(34.48163, 30.123727)"><g><path d="M 2.328125 0 L 2.328125 -18.75 L 4.296875 -18.75 L 4.296875 -11.46875 L 4.5625 -11.421875 C 5.507812 -12.890625 6.882812 -13.625 8.6875 -13.625 C 10.300781 -13.625 11.46875 -13.210938 12.1875 -12.390625 C 12.914062 -11.578125 13.28125 -10.316406 13.28125 -8.609375 L 13.28125 0 L 11.296875 0 L 11.296875 -8.5625 C 11.296875 -9.363281 11.191406 -10.007812 10.984375 -10.5 C 10.785156 -10.988281 10.46875 -11.34375 10.03125 -11.5625 C 9.601562 -11.789062 9.035156 -11.90625 8.328125 -11.90625 C 7.117188 -11.90625 6.144531 -11.507812 5.40625 -10.71875 C 4.664062 -9.9375 4.296875 -8.648438 4.296875 -6.859375 L 4.296875 0 Z M 2.328125 0 "/></g></g></g><g fill="#000000" fill-opacity="1"><g transform="translate(49.878772, 30.123727)"><g><path d="M 5.515625 0.25 C 4.203125 0.25 3.175781 -0.09375 2.4375 -0.78125 C 1.695312 -1.46875 1.328125 -2.445312 1.328125 -3.71875 C 1.328125 -4.507812 1.488281 -5.175781 1.8125 -5.71875 C 2.132812 -6.269531 2.640625 -6.71875 3.328125 -7.0625 C 4.015625 -7.40625 4.914062 -7.671875 6.03125 -7.859375 C 7 -8.015625 7.734375 -8.191406 8.234375 -8.390625 C 8.742188 -8.597656 9.082031 -8.828125 9.25 -9.078125 C 9.425781 -9.328125 9.515625 -9.644531 9.515625 -10.03125 C 9.515625 -10.632812 9.304688 -11.097656 8.890625 -11.421875 C 8.472656 -11.742188 7.804688 -11.90625 6.890625 -11.90625 C 6.023438 -11.90625 5.28125 -11.738281 4.65625 -11.40625 C 4.039062 -11.070312 3.472656 -10.570312 2.953125 -9.90625 L 2.71875 -9.90625 L 1.75 -11.28125 C 2.3125 -12 3.03125 -12.566406 3.90625 -12.984375 C 4.78125 -13.410156 5.773438 -13.625 6.890625 -13.625 C 8.460938 -13.625 9.625 -13.273438 10.375 -12.578125 C 11.125 -11.890625 11.5 -10.9375 11.5 -9.71875 L 11.5 -2.625 C 11.5 -1.882812 11.8125 -1.515625 12.4375 -1.515625 C 12.644531 -1.515625 12.847656 -1.550781 13.046875 -1.625 L 13.21875 -1.578125 L 13.4375 -0.203125 C 13.289062 -0.109375 13.097656 -0.0351562 12.859375 0.015625 C 12.628906 0.0664062 12.390625 0.09375 12.140625 0.09375 C 11.398438 0.09375 10.84375 -0.0664062 10.46875 -0.390625 C 10.09375 -0.710938 9.851562 -1.1875 9.75 -1.8125 L 9.5 -1.84375 C 9.113281 -1.132812 8.597656 -0.609375 7.953125 -0.265625 C 7.304688 0.078125 6.492188 0.25 5.515625 0.25 Z M 5.953125 -1.328125 C 6.691406 -1.328125 7.332031 -1.5 7.875 -1.84375 C 8.425781 -2.1875 8.847656 -2.664062 9.140625 -3.28125 C 9.429688 -3.90625 9.578125 -4.625 9.578125 -5.4375 L 9.578125 -7.140625 L 9.34375 -7.1875 C 9.039062 -6.976562 8.675781 -6.800781 8.25 -6.65625 C 7.820312 -6.519531 7.226562 -6.394531 6.46875 -6.28125 C 5.6875 -6.175781 5.066406 -6.015625 4.609375 -5.796875 C 4.148438 -5.578125 3.820312 -5.300781 3.625 -4.96875 C 3.4375 -4.632812 3.34375 -4.21875 3.34375 -3.71875 C 3.34375 -2.9375 3.570312 -2.34375 4.03125 -1.9375 C 4.5 -1.53125 5.140625 -1.328125 5.953125 -1.328125 Z M 5.953125 -1.328125 "/></g></g></g><g fill="#000000" fill-opacity="1"><g transform="translate(63.71196, 30.123727)"><g><path d="M 9.046875 -2.125 L 9.671875 -0.703125 C 9.359375 -0.390625 8.941406 -0.15625 8.421875 0 C 7.910156 0.164062 7.359375 0.25 6.765625 0.25 C 4.210938 0.25 2.9375 -1.039062 2.9375 -3.625 L 2.9375 -11.765625 L 0.609375 -11.765625 L 0.609375 -13.390625 L 2.9375 -13.390625 L 2.9375 -16.203125 L 4.90625 -16.53125 L 4.90625 -13.390625 L 9.21875 -13.390625 L 9.21875 -11.765625 L 4.90625 -11.765625 L 4.90625 -3.8125 C 4.90625 -2.28125 5.570312 -1.515625 6.90625 -1.515625 C 7.632812 -1.515625 8.265625 -1.71875 8.796875 -2.125 Z M 9.046875 -2.125 "/></g></g></g><g fill="#000000" fill-opacity="1"><g transform="translate(73.895897, 30.123727)"><g/></g></g><g fill="#000000" fill-opacity="1"><g transform="translate(79.982011, 30.123727)"><g><path d="M 3.328125 -15.953125 C 2.898438 -15.953125 2.554688 -16.082031 2.296875 -16.34375 C 2.035156 -16.601562 1.90625 -16.9375 1.90625 -17.34375 C 1.90625 -17.75 2.035156 -18.082031 2.296875 -18.34375 C 2.554688 -18.613281 2.898438 -18.75 3.328125 -18.75 C 3.742188 -18.75 4.082031 -18.613281 4.34375 -18.34375 C 4.601562 -18.082031 4.734375 -17.75 4.734375 -17.34375 C 4.734375 -16.9375 4.601562 -16.601562 4.34375 -16.34375 C 4.082031 -16.082031 3.742188 -15.953125 3.328125 -15.953125 Z M 2.328125 0 L 2.328125 -13.375 L 4.296875 -13.375 L 4.296875 0 Z M 2.328125 0 "/></g></g></g><g fill="#000000" fill-opacity="1"><g transform="translate(86.6137, 30.123727)"><g><path d="M 6.09375 0.25 C 5.257812 0.25 4.484375 0.140625 3.765625 -0.078125 C 3.046875 -0.296875 2.441406 -0.597656 1.953125 -0.984375 C 1.460938 -1.378906 1.113281 -1.816406 0.90625 -2.296875 L 2.078125 -3.515625 L 2.328125 -3.515625 C 2.765625 -2.847656 3.289062 -2.347656 3.90625 -2.015625 C 4.519531 -1.679688 5.25 -1.515625 6.09375 -1.515625 C 7.082031 -1.515625 7.832031 -1.707031 8.34375 -2.09375 C 8.851562 -2.476562 9.109375 -3.015625 9.109375 -3.703125 C 9.109375 -4.222656 8.953125 -4.65625 8.640625 -5 C 8.335938 -5.34375 7.835938 -5.597656 7.140625 -5.765625 L 4.890625 -6.328125 C 3.679688 -6.617188 2.800781 -7.078125 2.25 -7.703125 C 1.695312 -8.335938 1.421875 -9.117188 1.421875 -10.046875 C 1.421875 -10.773438 1.601562 -11.40625 1.96875 -11.9375 C 2.34375 -12.476562 2.878906 -12.894531 3.578125 -13.1875 C 4.273438 -13.476562 5.109375 -13.625 6.078125 -13.625 C 7.304688 -13.625 8.269531 -13.453125 8.96875 -13.109375 C 9.675781 -12.765625 10.226562 -12.285156 10.625 -11.671875 L 9.515625 -10.578125 L 9.28125 -10.578125 C 8.84375 -11.078125 8.367188 -11.4375 7.859375 -11.65625 C 7.359375 -11.875 6.765625 -11.984375 6.078125 -11.984375 C 5.191406 -11.984375 4.515625 -11.820312 4.046875 -11.5 C 3.578125 -11.1875 3.34375 -10.734375 3.34375 -10.140625 C 3.34375 -9.597656 3.507812 -9.160156 3.84375 -8.828125 C 4.175781 -8.492188 4.753906 -8.226562 5.578125 -8.03125 L 7.796875 -7.484375 C 8.960938 -7.210938 9.800781 -6.757812 10.3125 -6.125 C 10.832031 -5.488281 11.09375 -4.6875 11.09375 -3.71875 C 11.09375 -2.9375 10.90625 -2.242188 10.53125 -1.640625 C 10.164062 -1.046875 9.601562 -0.582031 8.84375 -0.25 C 8.09375 0.0820312 7.175781 0.25 6.09375 0.25 Z M 6.09375 0.25 "/></g></g></g><g fill="#000000" fill-opacity="1"><g transform="translate(98.979909, 30.123727)"><g/></g></g><g fill="#000000" fill-opacity="1"><g transform="translate(105.066024, 30.123727)"><g><path d="M 8.890625 0.25 C 7.890625 0.25 7.023438 0.0625 6.296875 -0.3125 C 5.566406 -0.695312 4.988281 -1.207031 4.5625 -1.84375 L 4.296875 -1.796875 L 4.296875 0 L 2.328125 0 L 2.328125 -18.75 L 4.296875 -18.75 L 4.296875 -11.375 L 4.5625 -11.328125 C 5.570312 -12.859375 7.050781 -13.625 9 -13.625 C 10.09375 -13.625 11.050781 -13.367188 11.875 -12.859375 C 12.707031 -12.347656 13.347656 -11.570312 13.796875 -10.53125 C 14.253906 -9.5 14.484375 -8.21875 14.484375 -6.6875 C 14.484375 -5.164062 14.242188 -3.882812 13.765625 -2.84375 C 13.285156 -1.800781 12.625 -1.023438 11.78125 -0.515625 C 10.9375 -0.00390625 9.972656 0.25 8.890625 0.25 Z M 8.40625 -1.515625 C 11.082031 -1.515625 12.421875 -3.238281 12.421875 -6.6875 C 12.421875 -8.46875 12.070312 -9.773438 11.375 -10.609375 C 10.675781 -11.441406 9.6875 -11.859375 8.40625 -11.859375 C 7.15625 -11.859375 6.15625 -11.429688 5.40625 -10.578125 C 4.664062 -9.722656 4.296875 -8.425781 4.296875 -6.6875 C 4.296875 -4.945312 4.664062 -3.648438 5.40625 -2.796875 C 6.15625 -1.941406 7.15625 -1.515625 8.40625 -1.515625 Z M 8.40625 -1.515625 "/></g></g></g><g fill="#000000" fill-opacity="1"><g transform="translate(121.020859, 30.123727)"><g><path d="M 12.734375 -6.234375 L 3.546875 -6.234375 C 3.609375 -4.609375 4 -3.414062 4.71875 -2.65625 C 5.445312 -1.894531 6.441406 -1.515625 7.703125 -1.515625 C 8.648438 -1.515625 9.414062 -1.679688 10 -2.015625 C 10.582031 -2.359375 11.039062 -2.894531 11.375 -3.625 L 11.625 -3.625 L 12.90625 -2.859375 C 12.519531 -1.890625 11.898438 -1.128906 11.046875 -0.578125 C 10.191406 -0.0234375 9.078125 0.25 7.703125 0.25 C 6.410156 0.25 5.296875 0 4.359375 -0.5 C 3.429688 -1.007812 2.71875 -1.78125 2.21875 -2.8125 C 1.71875 -3.851562 1.46875 -5.144531 1.46875 -6.6875 C 1.46875 -8.195312 1.734375 -9.472656 2.265625 -10.515625 C 2.796875 -11.566406 3.519531 -12.347656 4.4375 -12.859375 C 5.351562 -13.367188 6.398438 -13.625 7.578125 -13.625 C 9.285156 -13.625 10.617188 -13.140625 11.578125 -12.171875 C 12.546875 -11.210938 13.035156 -9.78125 13.046875 -7.875 C 13.046875 -7.132812 13.03125 -6.632812 13 -6.375 Z M 11.09375 -7.875 C 11.0625 -9.300781 10.742188 -10.335938 10.140625 -10.984375 C 9.546875 -11.628906 8.691406 -11.953125 7.578125 -11.953125 C 6.398438 -11.953125 5.476562 -11.625 4.8125 -10.96875 C 4.144531 -10.320312 3.738281 -9.289062 3.59375 -7.875 Z M 11.09375 -7.875 "/></g></g></g><g fill="#000000" fill-opacity="1"><g transform="translate(135.27837, 30.123727)"><g><path d="M 9.046875 -2.125 L 9.671875 -0.703125 C 9.359375 -0.390625 8.941406 -0.15625 8.421875 0 C 7.910156 0.164062 7.359375 0.25 6.765625 0.25 C 4.210938 0.25 2.9375 -1.039062 2.9375 -3.625 L 2.9375 -11.765625 L 0.609375 -11.765625 L 0.609375 -13.390625 L 2.9375 -13.390625 L 2.9375 -16.203125 L 4.90625 -16.53125 L 4.90625 -13.390625 L 9.21875 -13.390625 L 9.21875 -11.765625 L 4.90625 -11.765625 L 4.90625 -3.8125 C 4.90625 -2.28125 5.570312 -1.515625 6.90625 -1.515625 C 7.632812 -1.515625 8.265625 -1.71875 8.796875 -2.125 Z M 9.046875 -2.125 "/></g></g></g><g fill="#000000" fill-opacity="1"><g transform="translate(145.462307, 30.123727)"><g><path d="M 9.046875 -2.125 L 9.671875 -0.703125 C 9.359375 -0.390625 8.941406 -0.15625 8.421875 0 C 7.910156 0.164062 7.359375 0.25 6.765625 0.25 C 4.210938 0.25 2.9375 -1.039062 2.9375 -3.625 L 2.9375 -11.765625 L 0.609375 -11.765625 L 0.609375 -13.390625 L 2.9375 -13.390625 L 2.9375 -16.203125 L 4.90625 -16.53125 L 4.90625 -13.390625 L 9.21875 -13.390625 L 9.21875 -11.765625 L 4.90625 -11.765625 L 4.90625 -3.8125 C 4.90625 -2.28125 5.570312 -1.515625 6.90625 -1.515625 C 7.632812 -1.515625 8.265625 -1.71875 8.796875 -2.125 Z M 9.046875 -2.125 "/></g></g></g><g fill="#000000" fill-opacity="1"><g transform="translate(155.646244, 30.123727)"><g><path d="M 12.734375 -6.234375 L 3.546875 -6.234375 C 3.609375 -4.609375 4 -3.414062 4.71875 -2.65625 C 5.445312 -1.894531 6.441406 -1.515625 7.703125 -1.515625 C 8.648438 -1.515625 9.414062 -1.679688 10 -2.015625 C 10.582031 -2.359375 11.039062 -2.894531 11.375 -3.625 L 11.625 -3.625 L 12.90625 -2.859375 C 12.519531 -1.890625 11.898438 -1.128906 11.046875 -0.578125 C 10.191406 -0.0234375 9.078125 0.25 7.703125 0.25 C 6.410156 0.25 5.296875 0 4.359375 -0.5 C 3.429688 -1.007812 2.71875 -1.78125 2.21875 -2.8125 C 1.71875 -3.851562 1.46875 -5.144531 1.46875 -6.6875 C 1.46875 -8.195312 1.734375 -9.472656 2.265625 -10.515625 C 2.796875 -11.566406 3.519531 -12.347656 4.4375 -12.859375 C 5.351562 -13.367188 6.398438 -13.625 7.578125 -13.625 C 9.285156 -13.625 10.617188 -13.140625 11.578125 -12.171875 C 12.546875 -11.210938 13.035156 -9.78125 13.046875 -7.875 C 13.046875 -7.132812 13.03125 -6.632812 13 -6.375 Z M 11.09375 -7.875 C 11.0625 -9.300781 10.742188 -10.335938 10.140625 -10.984375 C 9.546875 -11.628906 8.691406 -11.953125 7.578125 -11.953125 C 6.398438 -11.953125 5.476562 -11.625 4.8125 -10.96875 C 4.144531 -10.320312 3.738281 -9.289062 3.59375 -7.875 Z M 11.09375 -7.875 "/></g></g></g><g fill="#000000" fill-opacity="1"><g transform="translate(169.903755, 30.123727)"><g><path d="M 2.328125 0 L 2.328125 -13.375 L 4.203125 -13.375 L 4.203125 -11.28125 L 4.46875 -11.21875 C 5.082031 -12.738281 6.253906 -13.5 7.984375 -13.5 C 8.890625 -13.5 9.570312 -13.332031 10.03125 -13 L 9.515625 -11.328125 L 9.28125 -11.28125 C 8.769531 -11.53125 8.21875 -11.65625 7.625 -11.65625 C 6.5625 -11.65625 5.738281 -11.253906 5.15625 -10.453125 C 4.582031 -9.648438 4.296875 -8.351562 4.296875 -6.5625 L 4.296875 0 Z M 2.328125 0 "/></g></g></g><g fill="#000000" fill-opacity="1"><g transform="translate(180.233177, 30.123727)"><g/></g></g><g fill="#000000" fill-opacity="1"><g transform="translate(186.319291, 30.123727)"><g><path d="M 2.328125 0 L 2.328125 -18.75 L 4.296875 -18.75 L 4.296875 -11.46875 L 4.5625 -11.421875 C 5.507812 -12.890625 6.882812 -13.625 8.6875 -13.625 C 10.300781 -13.625 11.46875 -13.210938 12.1875 -12.390625 C 12.914062 -11.578125 13.28125 -10.316406 13.28125 -8.609375 L 13.28125 0 L 11.296875 0 L 11.296875 -8.5625 C 11.296875 -9.363281 11.191406 -10.007812 10.984375 -10.5 C 10.785156 -10.988281 10.46875 -11.34375 10.03125 -11.5625 C 9.601562 -11.789062 9.035156 -11.90625 8.328125 -11.90625 C 7.117188 -11.90625 6.144531 -11.507812 5.40625 -10.71875 C 4.664062 -9.9375 4.296875 -8.648438 4.296875 -6.859375 L 4.296875 0 Z M 2.328125 0 "/></g></g></g><g fill="#000000" fill-opacity="1"><g transform="translate(201.716434, 30.123727)"><g><path d="M 5.515625 0.25 C 4.203125 0.25 3.175781 -0.09375 2.4375 -0.78125 C 1.695312 -1.46875 1.328125 -2.445312 1.328125 -3.71875 C 1.328125 -4.507812 1.488281 -5.175781 1.8125 -5.71875 C 2.132812 -6.269531 2.640625 -6.71875 3.328125 -7.0625 C 4.015625 -7.40625 4.914062 -7.671875 6.03125 -7.859375 C 7 -8.015625 7.734375 -8.191406 8.234375 -8.390625 C 8.742188 -8.597656 9.082031 -8.828125 9.25 -9.078125 C 9.425781 -9.328125 9.515625 -9.644531 9.515625 -10.03125 C 9.515625 -10.632812 9.304688 -11.097656 8.890625 -11.421875 C 8.472656 -11.742188 7.804688 -11.90625 6.890625 -11.90625 C 6.023438 -11.90625 5.28125 -11.738281 4.65625 -11.40625 C 4.039062 -11.070312 3.472656 -10.570312 2.953125 -9.90625 L 2.71875 -9.90625 L 1.75 -11.28125 C 2.3125 -12 3.03125 -12.566406 3.90625 -12.984375 C 4.78125 -13.410156 5.773438 -13.625 6.890625 -13.625 C 8.460938 -13.625 9.625 -13.273438 10.375 -12.578125 C 11.125 -11.890625 11.5 -10.9375 11.5 -9.71875 L 11.5 -2.625 C 11.5 -1.882812 11.8125 -1.515625 12.4375 -1.515625 C 12.644531 -1.515625 12.847656 -1.550781 13.046875 -1.625 L 13.21875 -1.578125 L 13.4375 -0.203125 C 13.289062 -0.109375 13.097656 -0.0351562 12.859375 0.015625 C 12.628906 0.0664062 12.390625 0.09375 12.140625 0.09375 C 11.398438 0.09375 10.84375 -0.0664062 10.46875 -0.390625 C 10.09375 -0.710938 9.851562 -1.1875 9.75 -1.8125 L 9.5 -1.84375 C 9.113281 -1.132812 8.597656 -0.609375 7.953125 -0.265625 C 7.304688 0.078125 6.492188 0.25 5.515625 0.25 Z M 5.953125 -1.328125 C 6.691406 -1.328125 7.332031 -1.5 7.875 -1.84375 C 8.425781 -2.1875 8.847656 -2.664062 9.140625 -3.28125 C 9.429688 -3.90625 9.578125 -4.625 9.578125 -5.4375 L 9.578125 -7.140625 L 9.34375 -7.1875 C 9.039062 -6.976562 8.675781 -6.800781 8.25 -6.65625 C 7.820312 -6.519531 7.226562 -6.394531 6.46875 -6.28125 C 5.6875 -6.175781 5.066406 -6.015625 4.609375 -5.796875 C 4.148438 -5.578125 3.820312 -5.300781 3.625 -4.96875 C 3.4375 -4.632812 3.34375 -4.21875 3.34375 -3.71875 C 3.34375 -2.9375 3.570312 -2.34375 4.03125 -1.9375 C 4.5 -1.53125 5.140625 -1.328125 5.953125 -1.328125 Z M 5.953125 -1.328125 "/></g></g></g><g fill="#000000" fill-opacity="1"><g transform="translate(215.549621, 30.123727)"><g><path d="M 2.328125 0 L 2.328125 -13.375 L 4.203125 -13.375 L 4.203125 -11.28125 L 4.46875 -11.21875 C 5.082031 -12.738281 6.253906 -13.5 7.984375 -13.5 C 8.890625 -13.5 9.570312 -13.332031 10.03125 -13 L 9.515625 -11.328125 L 9.28125 -11.28125 C 8.769531 -11.53125 8.21875 -11.65625 7.625 -11.65625 C 6.5625 -11.65625 5.738281 -11.253906 5.15625 -10.453125 C 4.582031 -9.648438 4.296875 -8.351562 4.296875 -6.5625 L 4.296875 0 Z M 2.328125 0 "/></g></g></g><g fill="#000000" fill-opacity="1"><g transform="translate(225.879043, 30.123727)"><g><path d="M 2.328125 0 L 2.328125 -13.375 L 4.203125 -13.375 L 4.203125 -11.28125 L 4.46875 -11.21875 C 5.082031 -12.738281 6.253906 -13.5 7.984375 -13.5 C 8.890625 -13.5 9.570312 -13.332031 10.03125 -13 L 9.515625 -11.328125 L 9.28125 -11.28125 C 8.769531 -11.53125 8.21875 -11.65625 7.625 -11.65625 C 6.5625 -11.65625 5.738281 -11.253906 5.15625 -10.453125 C 4.582031 -9.648438 4.296875 -8.351562 4.296875 -6.5625 L 4.296875 0 Z M 2.328125 0 "/></g></g></g><g fill="#000000" fill-opacity="1"><g transform="translate(236.208464, 30.123727)"><g><path d="M 2.671875 5.671875 C 2.222656 5.671875 1.800781 5.628906 1.40625 5.546875 C 1.019531 5.472656 0.6875 5.367188 0.40625 5.234375 L 0.765625 3.671875 L 0.984375 3.59375 C 1.171875 3.695312 1.410156 3.78125 1.703125 3.84375 C 1.992188 3.914062 2.296875 3.953125 2.609375 3.953125 C 3.148438 3.953125 3.597656 3.878906 3.953125 3.734375 C 4.304688 3.585938 4.609375 3.347656 4.859375 3.015625 C 5.117188 2.679688 5.359375 2.21875 5.578125 1.625 L 6.046875 0.3125 L 0.671875 -13.375 L 2.8125 -13.375 L 7.015625 -2.46875 L 7.25 -2.46875 L 11.328125 -13.375 L 13.34375 -13.375 L 7.375 2.09375 C 7.03125 2.945312 6.644531 3.632812 6.21875 4.15625 C 5.800781 4.6875 5.304688 5.070312 4.734375 5.3125 C 4.160156 5.550781 3.472656 5.671875 2.671875 5.671875 Z M 2.671875 5.671875 "/></g></g></g><g fill="#000000" fill-opacity="1"><g transform="translate(250.308374, 30.123727)"><g/></g></g><g fill="#000000" fill-opacity="1"><g transform="translate(256.394501, 30.123727)"><g><path d="M 2.328125 5.421875 L 2.328125 -13.375 L 4.296875 -13.375 L 4.296875 -11.375 L 4.5625 -11.328125 C 5.550781 -12.859375 7.007812 -13.625 8.9375 -13.625 C 10.050781 -13.625 11.023438 -13.367188 11.859375 -12.859375 C 12.691406 -12.347656 13.335938 -11.570312 13.796875 -10.53125 C 14.253906 -9.5 14.484375 -8.21875 14.484375 -6.6875 C 14.484375 -5.15625 14.238281 -3.867188 13.75 -2.828125 C 13.269531 -1.796875 12.601562 -1.023438 11.75 -0.515625 C 10.894531 -0.00390625 9.910156 0.25 8.796875 0.25 C 7.890625 0.25 7.082031 0.09375 6.375 -0.21875 C 5.675781 -0.53125 5.070312 -1.046875 4.5625 -1.765625 L 4.296875 -1.71875 L 4.296875 5.421875 Z M 8.359375 -1.515625 C 11.066406 -1.515625 12.421875 -3.238281 12.421875 -6.6875 C 12.421875 -10.132812 11.066406 -11.859375 8.359375 -11.859375 C 7.566406 -11.859375 6.863281 -11.675781 6.25 -11.3125 C 5.644531 -10.945312 5.164062 -10.378906 4.8125 -9.609375 C 4.46875 -8.835938 4.296875 -7.863281 4.296875 -6.6875 C 4.296875 -5.507812 4.46875 -4.535156 4.8125 -3.765625 C 5.164062 -2.992188 5.644531 -2.425781 6.25 -2.0625 C 6.863281 -1.695312 7.566406 -1.515625 8.359375 -1.515625 Z M 8.359375 -1.515625 "/></g></g></g><g fill="#000000" fill-opacity="1"><g transform="translate(272.349336, 30.123727)"><g><path d="M 7.671875 0.25 C 6.410156 0.25 5.3125 -0.015625 4.375 -0.546875 C 3.445312 -1.078125 2.726562 -1.863281 2.21875 -2.90625 C 1.71875 -3.945312 1.46875 -5.207031 1.46875 -6.6875 C 1.46875 -8.15625 1.71875 -9.410156 2.21875 -10.453125 C 2.726562 -11.503906 3.445312 -12.296875 4.375 -12.828125 C 5.3125 -13.359375 6.410156 -13.625 7.671875 -13.625 C 8.929688 -13.625 10.023438 -13.359375 10.953125 -12.828125 C 11.890625 -12.296875 12.609375 -11.503906 13.109375 -10.453125 C 13.617188 -9.410156 13.875 -8.15625 13.875 -6.6875 C 13.875 -5.207031 13.617188 -3.945312 13.109375 -2.90625 C 12.609375 -1.863281 11.890625 -1.078125 10.953125 -0.546875 C 10.023438 -0.015625 8.929688 0.25 7.671875 0.25 Z M 7.671875 -1.515625 C 9.003906 -1.515625 10.023438 -1.929688 10.734375 -2.765625 C 11.441406 -3.609375 11.796875 -4.914062 11.796875 -6.6875 C 11.796875 -8.445312 11.441406 -9.75 10.734375 -10.59375 C 10.023438 -11.4375 9.003906 -11.859375 7.671875 -11.859375 C 6.335938 -11.859375 5.316406 -11.4375 4.609375 -10.59375 C 3.898438 -9.75 3.546875 -8.445312 3.546875 -6.6875 C 3.546875 -4.914062 3.898438 -3.609375 4.609375 -2.765625 C 5.316406 -1.929688 6.335938 -1.515625 7.671875 -1.515625 Z M 7.671875 -1.515625 "/></g></g></g><g fill="#000000" fill-opacity="1"><g transform="translate(287.697997, 30.123727)"><g><path d="M 9.046875 -2.125 L 9.671875 -0.703125 C 9.359375 -0.390625 8.941406 -0.15625 8.421875 0 C 7.910156 0.164062 7.359375 0.25 6.765625 0.25 C 4.210938 0.25 2.9375 -1.039062 2.9375 -3.625 L 2.9375 -11.765625 L 0.609375 -11.765625 L 0.609375 -13.390625 L 2.9375 -13.390625 L 2.9375 -16.203125 L 4.90625 -16.53125 L 4.90625 -13.390625 L 9.21875 -13.390625 L 9.21875 -11.765625 L 4.90625 -11.765625 L 4.90625 -3.8125 C 4.90625 -2.28125 5.570312 -1.515625 6.90625 -1.515625 C 7.632812 -1.515625 8.265625 -1.71875 8.796875 -2.125 Z M 9.046875 -2.125 "/></g></g></g><g fill="#000000" fill-opacity="1"><g transform="translate(297.881934, 30.123727)"><g><path d="M 9.046875 -2.125 L 9.671875 -0.703125 C 9.359375 -0.390625 8.941406 -0.15625 8.421875 0 C 7.910156 0.164062 7.359375 0.25 6.765625 0.25 C 4.210938 0.25 2.9375 -1.039062 2.9375 -3.625 L 2.9375 -11.765625 L 0.609375 -11.765625 L 0.609375 -13.390625 L 2.9375 -13.390625 L 2.9375 -16.203125 L 4.90625 -16.53125 L 4.90625 -13.390625 L 9.21875 -13.390625 L 9.21875 -11.765625 L 4.90625 -11.765625 L 4.90625 -3.8125 C 4.90625 -2.28125 5.570312 -1.515625 6.90625 -1.515625 C 7.632812 -1.515625 8.265625 -1.71875 8.796875 -2.125 Z M 9.046875 -2.125 "/></g></g></g><g fill="#000000" fill-opacity="1"><g transform="translate(308.06587, 30.123727)"><g><path d="M 12.734375 -6.234375 L 3.546875 -6.234375 C 3.609375 -4.609375 4 -3.414062 4.71875 -2.65625 C 5.445312 -1.894531 6.441406 -1.515625 7.703125 -1.515625 C 8.648438 -1.515625 9.414062 -1.679688 10 -2.015625 C 10.582031 -2.359375 11.039062 -2.894531 11.375 -3.625 L 11.625 -3.625 L 12.90625 -2.859375 C 12.519531 -1.890625 11.898438 -1.128906 11.046875 -0.578125 C 10.191406 -0.0234375 9.078125 0.25 7.703125 0.25 C 6.410156 0.25 5.296875 0 4.359375 -0.5 C 3.429688 -1.007812 2.71875 -1.78125 2.21875 -2.8125 C 1.71875 -3.851562 1.46875 -5.144531 1.46875 -6.6875 C 1.46875 -8.195312 1.734375 -9.472656 2.265625 -10.515625 C 2.796875 -11.566406 3.519531 -12.347656 4.4375 -12.859375 C 5.351562 -13.367188 6.398438 -13.625 7.578125 -13.625 C 9.285156 -13.625 10.617188 -13.140625 11.578125 -12.171875 C 12.546875 -11.210938 13.035156 -9.78125 13.046875 -7.875 C 13.046875 -7.132812 13.03125 -6.632812 13 -6.375 Z M 11.09375 -7.875 C 11.0625 -9.300781 10.742188 -10.335938 10.140625 -10.984375 C 9.546875 -11.628906 8.691406 -11.953125 7.578125 -11.953125 C 6.398438 -11.953125 5.476562 -11.625 4.8125 -10.96875 C 4.144531 -10.320312 3.738281 -9.289062 3.59375 -7.875 Z M 11.09375 -7.875 "/></g></g></g><g fill="#000000" fill-opacity="1"><g transform="translate(322.323382, 30.123727)"><g><path d="M 2.328125 0 L 2.328125 -13.375 L 4.203125 -13.375 L 4.203125 -11.28125 L 4.46875 -11.21875 C 5.082031 -12.738281 6.253906 -13.5 7.984375 -13.5 C 8.890625 -13.5 9.570312 -13.332031 10.03125 -13 L 9.515625 -11.328125 L 9.28125 -11.28125 C 8.769531 -11.53125 8.21875 -11.65625 7.625 -11.65625 C 6.5625 -11.65625 5.738281 -11.253906 5.15625 -10.453125 C 4.582031 -9.648438 4.296875 -8.351562 4.296875 -6.5625 L 4.296875 0 Z M 2.328125 0 "/></g></g></g><g fill="#000000" fill-opacity="1"><g transform="translate(332.652803, 30.123727)"><g/></g></g><g fill="#000000" fill-opacity="1"><g transform="translate(338.738905, 30.123727)"><g><path d="M 7.671875 0.25 C 6.410156 0.25 5.3125 -0.015625 4.375 -0.546875 C 3.445312 -1.078125 2.726562 -1.863281 2.21875 -2.90625 C 1.71875 -3.945312 1.46875 -5.207031 1.46875 -6.6875 C 1.46875 -8.15625 1.71875 -9.410156 2.21875 -10.453125 C 2.726562 -11.503906 3.445312 -12.296875 4.375 -12.828125 C 5.3125 -13.359375 6.410156 -13.625 7.671875 -13.625 C 8.929688 -13.625 10.023438 -13.359375 10.953125 -12.828125 C 11.890625 -12.296875 12.609375 -11.503906 13.109375 -10.453125 C 13.617188 -9.410156 13.875 -8.15625 13.875 -6.6875 C 13.875 -5.207031 13.617188 -3.945312 13.109375 -2.90625 C 12.609375 -1.863281 11.890625 -1.078125 10.953125 -0.546875 C 10.023438 -0.015625 8.929688 0.25 7.671875 0.25 Z M 7.671875 -1.515625 C 9.003906 -1.515625 10.023438 -1.929688 10.734375 -2.765625 C 11.441406 -3.609375 11.796875 -4.914062 11.796875 -6.6875 C 11.796875 -8.445312 11.441406 -9.75 10.734375 -10.59375 C 10.023438 -11.4375 9.003906 -11.859375 7.671875 -11.859375 C 6.335938 -11.859375 5.316406 -11.4375 4.609375 -10.59375 C 3.898438 -9.75 3.546875 -8.445312 3.546875 -6.6875 C 3.546875 -4.914062 3.898438 -3.609375 4.609375 -2.765625 C 5.316406 -1.929688 6.335938 -1.515625 7.671875 -1.515625 Z M 7.671875 -1.515625 "/></g></g></g><g fill="#000000" fill-opacity="1"><g transform="translate(354.08754, 30.123727)"><g><path d="M 2.328125 0 L 2.328125 -13.375 L 4.203125 -13.375 L 4.203125 -11.28125 L 4.46875 -11.21875 C 5.082031 -12.738281 6.253906 -13.5 7.984375 -13.5 C 8.890625 -13.5 9.570312 -13.332031 10.03125 -13 L 9.515625 -11.328125 L 9.28125 -11.28125 C 8.769531 -11.53125 8.21875 -11.65625 7.625 -11.65625 C 6.5625 -11.65625 5.738281 -11.253906 5.15625 -10.453125 C 4.582031 -9.648438 4.296875 -8.351562 4.296875 -6.5625 L 4.296875 0 Z M 2.328125 0 "/></g></g></g><g fill="#000000" fill-opacity="1"><g transform="translate(92.492672, 64.834631)"><g><path d="M 5.328125 0.25 C 4.378906 0.25 3.632812 -0.015625 3.09375 -0.546875 C 2.550781 -1.085938 2.28125 -1.890625 2.28125 -2.953125 L 2.28125 -18.75 L 4.25 -18.75 L 4.25 -3.09375 C 4.25 -2.53125 4.351562 -2.125 4.5625 -1.875 C 4.78125 -1.632812 5.117188 -1.515625 5.578125 -1.515625 C 5.847656 -1.515625 6.125 -1.5625 6.40625 -1.65625 L 6.578125 -1.59375 L 6.8125 -0.046875 C 6.664062 0.046875 6.457031 0.117188 6.1875 0.171875 C 5.914062 0.222656 5.628906 0.25 5.328125 0.25 Z M 5.328125 0.25 "/></g></g></g><g fill="#000000" fill-opacity="1"><g transform="translate(99.766912, 64.834631)"><g><path d="M 7.671875 0.25 C 6.410156 0.25 5.3125 -0.015625 4.375 -0.546875 C 3.445312 -1.078125 2.726562 -1.863281 2.21875 -2.90625 C 1.71875 -3.945312 1.46875 -5.207031 1.46875 -6.6875 C 1.46875 -8.15625 1.71875 -9.410156 2.21875 -10.453125 C 2.726562 -11.503906 3.445312 -12.296875 4.375 -12.828125 C 5.3125 -13.359375 6.410156 -13.625 7.671875 -13.625 C 8.929688 -13.625 10.023438 -13.359375 10.953125 -12.828125 C 11.890625 -12.296875 12.609375 -11.503906 13.109375 -10.453125 C 13.617188 -9.410156 13.875 -8.15625 13.875 -6.6875 C 13.875 -5.207031 13.617188 -3.945312 13.109375 -2.90625 C 12.609375 -1.863281 11.890625 -1.078125 10.953125 -0.546875 C 10.023438 -0.015625 8.929688 0.25 7.671875 0.25 Z M 7.671875 -1.515625 C 9.003906 -1.515625 10.023438 -1.929688 10.734375 -2.765625 C 11.441406 -3.609375 11.796875 -4.914062 11.796875 -6.6875 C 11.796875 -8.445312 11.441406 -9.75 10.734375 -10.59375 C 10.023438 -11.4375 9.003906 -11.859375 7.671875 -11.859375 C 6.335938 -11.859375 5.316406 -11.4375 4.609375 -10.59375 C 3.898438 -9.75 3.546875 -8.445312 3.546875 -6.6875 C 3.546875 -4.914062 3.898438 -3.609375 4.609375 -2.765625 C 5.316406 -1.929688 6.335938 -1.515625 7.671875 -1.515625 Z M 7.671875 -1.515625 "/></g></g></g><g fill="#000000" fill-opacity="1"><g transform="translate(115.11556, 64.834631)"><g><path d="M 2.328125 0 L 2.328125 -13.375 L 4.203125 -13.375 L 4.203125 -11.28125 L 4.46875 -11.21875 C 5.082031 -12.738281 6.253906 -13.5 7.984375 -13.5 C 8.890625 -13.5 9.570312 -13.332031 10.03125 -13 L 9.515625 -11.328125 L 9.28125 -11.28125 C 8.769531 -11.53125 8.21875 -11.65625 7.625 -11.65625 C 6.5625 -11.65625 5.738281 -11.253906 5.15625 -10.453125 C 4.582031 -9.648438 4.296875 -8.351562 4.296875 -6.5625 L 4.296875 0 Z M 2.328125 0 "/></g></g></g><g fill="#000000" fill-opacity="1"><g transform="translate(125.444982, 64.834631)"><g><path d="M 6.9375 0.25 C 5.863281 0.25 4.914062 -0.00390625 4.09375 -0.515625 C 3.269531 -1.023438 2.625 -1.796875 2.15625 -2.828125 C 1.695312 -3.867188 1.46875 -5.15625 1.46875 -6.6875 C 1.46875 -8.207031 1.707031 -9.488281 2.1875 -10.53125 C 2.675781 -11.570312 3.347656 -12.347656 4.203125 -12.859375 C 5.054688 -13.367188 6.046875 -13.625 7.171875 -13.625 C 8.054688 -13.625 8.851562 -13.457031 9.5625 -13.125 C 10.269531 -12.789062 10.878906 -12.238281 11.390625 -11.46875 L 11.65625 -11.515625 L 11.65625 -18.75 L 13.625 -18.75 L 13.625 0 L 11.65625 0 L 11.65625 -1.953125 L 11.390625 -2 C 10.953125 -1.332031 10.359375 -0.789062 9.609375 -0.375 C 8.867188 0.0390625 7.976562 0.25 6.9375 0.25 Z M 7.546875 -1.515625 C 8.796875 -1.515625 9.789062 -1.941406 10.53125 -2.796875 C 11.28125 -3.648438 11.65625 -4.945312 11.65625 -6.6875 C 11.65625 -8.425781 11.28125 -9.722656 10.53125 -10.578125 C 9.789062 -11.429688 8.796875 -11.859375 7.546875 -11.859375 C 6.265625 -11.859375 5.273438 -11.441406 4.578125 -10.609375 C 3.890625 -9.773438 3.546875 -8.46875 3.546875 -6.6875 C 3.546875 -3.238281 4.878906 -1.515625 7.546875 -1.515625 Z M 7.546875 -1.515625 "/></g></g></g><g fill="#000000" fill-opacity="1"><g transform="translate(141.411947, 64.834631)"><g/></g></g><g fill="#000000" fill-opacity="1"><g transform="translate(147.498061, 64.834631)"><g><path d="M 7.671875 0.25 C 6.410156 0.25 5.3125 -0.015625 4.375 -0.546875 C 3.445312 -1.078125 2.726562 -1.863281 2.21875 -2.90625 C 1.71875 -3.945312 1.46875 -5.207031 1.46875 -6.6875 C 1.46875 -8.15625 1.71875 -9.410156 2.21875 -10.453125 C 2.726562 -11.503906 3.445312 -12.296875 4.375 -12.828125 C 5.3125 -13.359375 6.410156 -13.625 7.671875 -13.625 C 8.929688 -13.625 10.023438 -13.359375 10.953125 -12.828125 C 11.890625 -12.296875 12.609375 -11.503906 13.109375 -10.453125 C 13.617188 -9.410156 13.875 -8.15625 13.875 -6.6875 C 13.875 -5.207031 13.617188 -3.945312 13.109375 -2.90625 C 12.609375 -1.863281 11.890625 -1.078125 10.953125 -0.546875 C 10.023438 -0.015625 8.929688 0.25 7.671875 0.25 Z M 7.671875 -1.515625 C 9.003906 -1.515625 10.023438 -1.929688 10.734375 -2.765625 C 11.441406 -3.609375 11.796875 -4.914062 11.796875 -6.6875 C 11.796875 -8.445312 11.441406 -9.75 10.734375 -10.59375 C 10.023438 -11.4375 9.003906 -11.859375 7.671875 -11.859375 C 6.335938 -11.859375 5.316406 -11.4375 4.609375 -10.59375 C 3.898438 -9.75 3.546875 -8.445312 3.546875 -6.6875 C 3.546875 -4.914062 3.898438 -3.609375 4.609375 -2.765625 C 5.316406 -1.929688 6.335938 -1.515625 7.671875 -1.515625 Z M 7.671875 -1.515625 "/></g></g></g><g fill="#000000" fill-opacity="1"><g transform="translate(162.846709, 64.834631)"><g><path d="M 2.984375 0 L 2.984375 -11.765625 L 0.65625 -11.765625 L 0.65625 -13.390625 L 2.984375 -13.390625 C 2.835938 -13.960938 2.765625 -14.515625 2.765625 -15.046875 C 2.765625 -15.910156 2.945312 -16.640625 3.3125 -17.234375 C 3.6875 -17.828125 4.195312 -18.269531 4.84375 -18.5625 C 5.5 -18.851562 6.253906 -19 7.109375 -19 C 8.441406 -19 9.46875 -18.710938 10.1875 -18.140625 L 9.421875 -16.734375 L 9.171875 -16.6875 C 8.640625 -17.113281 7.953125 -17.328125 7.109375 -17.328125 C 6.328125 -17.328125 5.734375 -17.125 5.328125 -16.71875 C 4.929688 -16.3125 4.734375 -15.738281 4.734375 -15 C 4.734375 -14.539062 4.804688 -14.003906 4.953125 -13.390625 L 9.21875 -13.390625 L 9.21875 -11.765625 L 4.953125 -11.765625 L 4.953125 0 Z M 2.984375 0 "/></g></g></g><g fill="#000000" fill-opacity="1"><g transform="translate(172.375964, 64.834631)"><g/></g></g><g fill="#000000" fill-opacity="1"><g transform="translate(178.462079, 64.834631)"><g><path d="M 9.046875 -2.125 L 9.671875 -0.703125 C 9.359375 -0.390625 8.941406 -0.15625 8.421875 0 C 7.910156 0.164062 7.359375 0.25 6.765625 0.25 C 4.210938 0.25 2.9375 -1.039062 2.9375 -3.625 L 2.9375 -11.765625 L 0.609375 -11.765625 L 0.609375 -13.390625 L 2.9375 -13.390625 L 2.9375 -16.203125 L 4.90625 -16.53125 L 4.90625 -13.390625 L 9.21875 -13.390625 L 9.21875 -11.765625 L 4.90625 -11.765625 L 4.90625 -3.8125 C 4.90625 -2.28125 5.570312 -1.515625 6.90625 -1.515625 C 7.632812 -1.515625 8.265625 -1.71875 8.796875 -2.125 Z M 9.046875 -2.125 "/></g></g></g><g fill="#000000" fill-opacity="1"><g transform="translate(188.646016, 64.834631)"><g><path d="M 2.328125 0 L 2.328125 -18.75 L 4.296875 -18.75 L 4.296875 -11.46875 L 4.5625 -11.421875 C 5.507812 -12.890625 6.882812 -13.625 8.6875 -13.625 C 10.300781 -13.625 11.46875 -13.210938 12.1875 -12.390625 C 12.914062 -11.578125 13.28125 -10.316406 13.28125 -8.609375 L 13.28125 0 L 11.296875 0 L 11.296875 -8.5625 C 11.296875 -9.363281 11.191406 -10.007812 10.984375 -10.5 C 10.785156 -10.988281 10.46875 -11.34375 10.03125 -11.5625 C 9.601562 -11.789062 9.035156 -11.90625 8.328125 -11.90625 C 7.117188 -11.90625 6.144531 -11.507812 5.40625 -10.71875 C 4.664062 -9.9375 4.296875 -8.648438 4.296875 -6.859375 L 4.296875 0 Z M 2.328125 0 "/></g></g></g><g fill="#000000" fill-opacity="1"><g transform="translate(204.043158, 64.834631)"><g><path d="M 12.734375 -6.234375 L 3.546875 -6.234375 C 3.609375 -4.609375 4 -3.414062 4.71875 -2.65625 C 5.445312 -1.894531 6.441406 -1.515625 7.703125 -1.515625 C 8.648438 -1.515625 9.414062 -1.679688 10 -2.015625 C 10.582031 -2.359375 11.039062 -2.894531 11.375 -3.625 L 11.625 -3.625 L 12.90625 -2.859375 C 12.519531 -1.890625 11.898438 -1.128906 11.046875 -0.578125 C 10.191406 -0.0234375 9.078125 0.25 7.703125 0.25 C 6.410156 0.25 5.296875 0 4.359375 -0.5 C 3.429688 -1.007812 2.71875 -1.78125 2.21875 -2.8125 C 1.71875 -3.851562 1.46875 -5.144531 1.46875 -6.6875 C 1.46875 -8.195312 1.734375 -9.472656 2.265625 -10.515625 C 2.796875 -11.566406 3.519531 -12.347656 4.4375 -12.859375 C 5.351562 -13.367188 6.398438 -13.625 7.578125 -13.625 C 9.285156 -13.625 10.617188 -13.140625 11.578125 -12.171875 C 12.546875 -11.210938 13.035156 -9.78125 13.046875 -7.875 C 13.046875 -7.132812 13.03125 -6.632812 13 -6.375 Z M 11.09375 -7.875 C 11.0625 -9.300781 10.742188 -10.335938 10.140625 -10.984375 C 9.546875 -11.628906 8.691406 -11.953125 7.578125 -11.953125 C 6.398438 -11.953125 5.476562 -11.625 4.8125 -10.96875 C 4.144531 -10.320312 3.738281 -9.289062 3.59375 -7.875 Z M 11.09375 -7.875 "/></g></g></g><g fill="#000000" fill-opacity="1"><g transform="translate(218.300669, 64.834631)"><g/></g></g><g fill="#000000" fill-opacity="1"><g transform="translate(224.386784, 64.834631)"><g><path d="M 2.328125 0 L 2.328125 -13.375 L 4.203125 -13.375 L 4.203125 -11.28125 L 4.46875 -11.21875 C 5.082031 -12.738281 6.253906 -13.5 7.984375 -13.5 C 8.890625 -13.5 9.570312 -13.332031 10.03125 -13 L 9.515625 -11.328125 L 9.28125 -11.28125 C 8.769531 -11.53125 8.21875 -11.65625 7.625 -11.65625 C 6.5625 -11.65625 5.738281 -11.253906 5.15625 -10.453125 C 4.582031 -9.648438 4.296875 -8.351562 4.296875 -6.5625 L 4.296875 0 Z M 2.328125 0 "/></g></g></g><g fill="#000000" fill-opacity="1"><g transform="translate(234.716206, 64.834631)"><g><path d="M 3.328125 -15.953125 C 2.898438 -15.953125 2.554688 -16.082031 2.296875 -16.34375 C 2.035156 -16.601562 1.90625 -16.9375 1.90625 -17.34375 C 1.90625 -17.75 2.035156 -18.082031 2.296875 -18.34375 C 2.554688 -18.613281 2.898438 -18.75 3.328125 -18.75 C 3.742188 -18.75 4.082031 -18.613281 4.34375 -18.34375 C 4.601562 -18.082031 4.734375 -17.75 4.734375 -17.34375 C 4.734375 -16.9375 4.601562 -16.601562 4.34375 -16.34375 C 4.082031 -16.082031 3.742188 -15.953125 3.328125 -15.953125 Z M 2.328125 0 L 2.328125 -13.375 L 4.296875 -13.375 L 4.296875 0 Z M 2.328125 0 "/></g></g></g><g fill="#000000" fill-opacity="1"><g transform="translate(241.347895, 64.834631)"><g><path d="M 2.328125 0 L 2.328125 -13.375 L 4.203125 -13.375 L 4.203125 -11.28125 L 4.46875 -11.21875 C 4.90625 -12 5.46875 -12.59375 6.15625 -13 C 6.851562 -13.414062 7.695312 -13.625 8.6875 -13.625 C 10.300781 -13.625 11.46875 -13.210938 12.1875 -12.390625 C 12.914062 -11.578125 13.28125 -10.316406 13.28125 -8.609375 L 13.28125 0 L 11.296875 0 L 11.296875 -8.5625 C 11.296875 -9.363281 11.191406 -10.007812 10.984375 -10.5 C 10.785156 -10.988281 10.46875 -11.34375 10.03125 -11.5625 C 9.601562 -11.789062 9.035156 -11.90625 8.328125 -11.90625 C 7.117188 -11.90625 6.144531 -11.503906 5.40625 -10.703125 C 4.664062 -9.910156 4.296875 -8.628906 4.296875 -6.859375 L 4.296875 0 Z M 2.328125 0 "/></g></g></g><g fill="#000000" fill-opacity="1"><g transform="translate(256.745037, 64.834631)"><g><path d="M 6.890625 5.671875 C 4.773438 5.671875 3.234375 5.316406 2.265625 4.609375 C 1.296875 3.910156 0.8125 2.976562 0.8125 1.8125 C 0.8125 1.0625 1.035156 0.460938 1.484375 0.015625 C 1.941406 -0.421875 2.601562 -0.738281 3.46875 -0.9375 L 3.46875 -1.1875 C 3.050781 -1.425781 2.738281 -1.703125 2.53125 -2.015625 C 2.332031 -2.328125 2.234375 -2.703125 2.234375 -3.140625 C 2.234375 -3.660156 2.394531 -4.082031 2.71875 -4.40625 C 3.050781 -4.726562 3.539062 -4.972656 4.1875 -5.140625 L 4.1875 -5.390625 C 2.726562 -6.160156 2 -7.410156 2 -9.140625 C 2 -10.015625 2.195312 -10.789062 2.59375 -11.46875 C 2.988281 -12.144531 3.550781 -12.671875 4.28125 -13.046875 C 5.019531 -13.429688 5.878906 -13.625 6.859375 -13.625 C 7.984375 -13.625 8.921875 -13.378906 9.671875 -12.890625 C 9.953125 -13.203125 10.160156 -13.535156 10.296875 -13.890625 C 10.441406 -14.253906 10.535156 -14.664062 10.578125 -15.125 L 10.84375 -15.28125 L 12.46875 -14.890625 C 12.382812 -14.210938 12.175781 -13.640625 11.84375 -13.171875 C 11.519531 -12.703125 11.0625 -12.3125 10.46875 -12 L 10.46875 -11.75 C 10.894531 -11.40625 11.207031 -11.003906 11.40625 -10.546875 C 11.613281 -10.097656 11.71875 -9.566406 11.71875 -8.953125 C 11.71875 -8.117188 11.515625 -7.363281 11.109375 -6.6875 C 10.710938 -6.019531 10.144531 -5.492188 9.40625 -5.109375 C 8.664062 -4.722656 7.816406 -4.53125 6.859375 -4.53125 C 6.742188 -4.53125 6.539062 -4.539062 6.25 -4.5625 C 5.925781 -4.570312 5.691406 -4.578125 5.546875 -4.578125 C 5.117188 -4.578125 4.78125 -4.46875 4.53125 -4.25 C 4.28125 -4.03125 4.15625 -3.753906 4.15625 -3.421875 C 4.15625 -2.992188 4.289062 -2.679688 4.5625 -2.484375 C 4.832031 -2.285156 5.28125 -2.175781 5.90625 -2.15625 L 9.0625 -2.046875 C 10.425781 -1.992188 11.4375 -1.675781 12.09375 -1.09375 C 12.757812 -0.507812 13.09375 0.316406 13.09375 1.390625 C 13.09375 2.191406 12.878906 2.910156 12.453125 3.546875 C 12.023438 4.191406 11.34375 4.707031 10.40625 5.09375 C 9.476562 5.476562 8.304688 5.671875 6.890625 5.671875 Z M 6.859375 -6.234375 C 7.804688 -6.234375 8.535156 -6.476562 9.046875 -6.96875 C 9.566406 -7.457031 9.828125 -8.148438 9.828125 -9.046875 C 9.828125 -9.960938 9.570312 -10.671875 9.0625 -11.171875 C 8.550781 -11.671875 7.816406 -11.921875 6.859375 -11.921875 C 5.910156 -11.921875 5.179688 -11.671875 4.671875 -11.171875 C 4.171875 -10.679688 3.921875 -9.972656 3.921875 -9.046875 C 3.921875 -8.148438 4.171875 -7.457031 4.671875 -6.96875 C 5.179688 -6.476562 5.910156 -6.234375 6.859375 -6.234375 Z M 6.890625 3.96875 C 7.867188 3.96875 8.671875 3.859375 9.296875 3.640625 C 9.929688 3.429688 10.382812 3.144531 10.65625 2.78125 C 10.925781 2.425781 11.0625 2.023438 11.0625 1.578125 C 11.0625 1.179688 10.988281 0.859375 10.84375 0.609375 C 10.695312 0.367188 10.457031 0.1875 10.125 0.0625 C 9.789062 -0.0507812 9.335938 -0.125 8.765625 -0.15625 L 5.765625 -0.296875 L 5.34375 -0.296875 C 3.675781 -0.273438 2.84375 0.375 2.84375 1.65625 C 2.84375 3.195312 4.191406 3.96875 6.890625 3.96875 Z M 6.890625 3.96875 "/></g></g></g><g fill="#000000" fill-opacity="1"><g transform="translate(270.444857, 64.834631)"><g><path d="M 4.71875 -6.375 C 4.71875 -6.914062 4.78125 -7.382812 4.90625 -7.78125 C 5.039062 -8.175781 5.257812 -8.550781 5.5625 -8.90625 C 5.875 -9.257812 6.304688 -9.648438 6.859375 -10.078125 L 7.984375 -10.9375 C 8.460938 -11.3125 8.8125 -11.71875 9.03125 -12.15625 C 9.257812 -12.59375 9.375 -13.109375 9.375 -13.703125 C 9.375 -14.429688 9.097656 -15.015625 8.546875 -15.453125 C 8.003906 -15.890625 7.238281 -16.109375 6.25 -16.109375 C 4.550781 -16.109375 3.28125 -15.347656 2.4375 -13.828125 L 2.15625 -13.765625 L 0.90625 -15.09375 C 2.15625 -17.019531 3.9375 -17.984375 6.25 -17.984375 C 7.414062 -17.984375 8.394531 -17.789062 9.1875 -17.40625 C 9.988281 -17.03125 10.582031 -16.519531 10.96875 -15.875 C 11.351562 -15.238281 11.546875 -14.515625 11.546875 -13.703125 C 11.546875 -12.773438 11.335938 -11.992188 10.921875 -11.359375 C 10.515625 -10.734375 9.921875 -10.117188 9.140625 -9.515625 L 8.15625 -8.765625 C 7.769531 -8.460938 7.476562 -8.195312 7.28125 -7.96875 C 7.082031 -7.738281 6.941406 -7.488281 6.859375 -7.21875 C 6.773438 -6.957031 6.734375 -6.628906 6.734375 -6.234375 L 6.734375 -5.875 L 4.71875 -5.875 Z M 5.671875 0.125 C 5.210938 0.125 4.847656 -0.00390625 4.578125 -0.265625 C 4.316406 -0.523438 4.1875 -0.867188 4.1875 -1.296875 C 4.1875 -1.710938 4.316406 -2.054688 4.578125 -2.328125 C 4.847656 -2.597656 5.210938 -2.734375 5.671875 -2.734375 C 6.128906 -2.734375 6.492188 -2.601562 6.765625 -2.34375 C 7.035156 -2.09375 7.171875 -1.753906 7.171875 -1.328125 C 7.171875 -0.890625 7.035156 -0.535156 6.765625 -0.265625 C 6.492188 -0.00390625 6.128906 0.125 5.671875 0.125 Z M 5.671875 0.125 "/></g></g></g><path stroke-linecap="butt" transform="matrix(0, 0.748512, -0.748512, 0, 189.385432, 70.820853)" fill="none" stroke-linejoin="miter" d="M -0.00072259 2.002258 L 89.259719 2.002258 " stroke="#000000" stroke-width="4" stroke-opacity="1" stroke-miterlimit="4"/><path stroke-linecap="round" transform="matrix(0, 0.748512, -0.748512, 0, 189.385432, 70.820853)" fill="none" stroke-linejoin="round" d="M 81.25947 -3.999234 L 89.259719 2.002258 L 81.25947 7.99853 " stroke="#000000" stroke-width="4" stroke-opacity="1" stroke-miterlimit="4"/><g fill="#000000" fill-opacity="1"><g transform="translate(32.458735, 406.374561)"><g><path d="M 12.234375 -15.671875 L 12.234375 -14.109375 L 7.328125 -14.109375 L 7.328125 0 L 5.484375 0 L 5.484375 -14.109375 L 0.578125 -14.109375 L 0.578125 -15.671875 Z M 12.234375 -15.671875 "/></g></g></g><g fill="#000000" fill-opacity="1"><g transform="translate(45.257185, 406.374561)"><g><path d="M 2.0625 0 L 2.0625 -16.578125 L 3.8125 -16.578125 L 3.8125 -10.140625 L 4.03125 -10.09375 C 4.875 -11.394531 6.09375 -12.046875 7.6875 -12.046875 C 9.101562 -12.046875 10.128906 -11.679688 10.765625 -10.953125 C 11.410156 -10.234375 11.734375 -9.117188 11.734375 -7.609375 L 11.734375 0 L 9.984375 0 L 9.984375 -7.5625 C 9.984375 -8.28125 9.890625 -8.851562 9.703125 -9.28125 C 9.523438 -9.71875 9.242188 -10.035156 8.859375 -10.234375 C 8.484375 -10.429688 7.984375 -10.53125 7.359375 -10.53125 C 6.285156 -10.53125 5.425781 -10.179688 4.78125 -9.484375 C 4.132812 -8.796875 3.8125 -7.65625 3.8125 -6.0625 L 3.8125 0 Z M 2.0625 0 "/></g></g></g><g fill="#000000" fill-opacity="1"><g transform="translate(58.870276, 406.374561)"><g><path d="M 11.265625 -5.515625 L 3.140625 -5.515625 C 3.191406 -4.078125 3.535156 -3.019531 4.171875 -2.34375 C 4.816406 -1.675781 5.695312 -1.34375 6.8125 -1.34375 C 7.65625 -1.34375 8.332031 -1.488281 8.84375 -1.78125 C 9.351562 -2.082031 9.757812 -2.554688 10.0625 -3.203125 L 10.28125 -3.203125 L 11.421875 -2.53125 C 11.078125 -1.675781 10.523438 -1.003906 9.765625 -0.515625 C 9.015625 -0.0234375 8.03125 0.21875 6.8125 0.21875 C 5.664062 0.21875 4.679688 -0.00390625 3.859375 -0.453125 C 3.035156 -0.898438 2.398438 -1.582031 1.953125 -2.5 C 1.515625 -3.414062 1.296875 -4.550781 1.296875 -5.90625 C 1.296875 -7.25 1.53125 -8.378906 2 -9.296875 C 2.46875 -10.222656 3.109375 -10.910156 3.921875 -11.359375 C 4.734375 -11.816406 5.660156 -12.046875 6.703125 -12.046875 C 8.210938 -12.046875 9.390625 -11.617188 10.234375 -10.765625 C 11.085938 -9.910156 11.519531 -8.644531 11.53125 -6.96875 C 11.53125 -6.3125 11.515625 -5.867188 11.484375 -5.640625 Z M 9.8125 -6.96875 C 9.78125 -8.226562 9.5 -9.140625 8.96875 -9.703125 C 8.4375 -10.273438 7.679688 -10.5625 6.703125 -10.5625 C 5.660156 -10.5625 4.84375 -10.273438 4.25 -9.703125 C 3.664062 -9.128906 3.3125 -8.21875 3.1875 -6.96875 Z M 9.8125 -6.96875 "/></g></g></g><g fill="#000000" fill-opacity="1"><g transform="translate(71.475784, 406.374561)"><g/></g></g><g fill="#000000" fill-opacity="1"><g transform="translate(76.856707, 406.374561)"><g><path d="M 10.296875 4.796875 L 10.296875 -1.65625 L 10.078125 -1.703125 C 9.609375 -1.035156 9.039062 -0.546875 8.375 -0.234375 C 7.71875 0.0664062 6.960938 0.21875 6.109375 0.21875 C 5.160156 0.21875 4.320312 -0.00390625 3.59375 -0.453125 C 2.875 -0.898438 2.3125 -1.578125 1.90625 -2.484375 C 1.5 -3.390625 1.296875 -4.503906 1.296875 -5.828125 C 1.296875 -7.203125 1.507812 -8.351562 1.9375 -9.28125 C 2.363281 -10.207031 2.953125 -10.898438 3.703125 -11.359375 C 4.460938 -11.816406 5.335938 -12.046875 6.328125 -12.046875 C 7.117188 -12.046875 7.828125 -11.898438 8.453125 -11.609375 C 9.085938 -11.316406 9.628906 -10.828125 10.078125 -10.140625 L 10.296875 -10.1875 L 10.296875 -11.828125 L 12.046875 -11.828125 L 12.046875 4.796875 Z M 6.671875 -1.34375 C 7.390625 -1.34375 8.019531 -1.5 8.5625 -1.8125 C 9.101562 -2.132812 9.523438 -2.628906 9.828125 -3.296875 C 10.140625 -3.972656 10.296875 -4.816406 10.296875 -5.828125 C 10.296875 -7.398438 9.96875 -8.566406 9.3125 -9.328125 C 8.65625 -10.097656 7.773438 -10.484375 6.671875 -10.484375 C 4.304688 -10.484375 3.125 -8.929688 3.125 -5.828125 C 3.125 -4.285156 3.429688 -3.148438 4.046875 -2.421875 C 4.671875 -1.703125 5.546875 -1.34375 6.671875 -1.34375 Z M 6.671875 -1.34375 "/></g></g></g><g fill="#000000" fill-opacity="1"><g transform="translate(90.973596, 406.374561)"><g><path d="M 5.84375 0.21875 C 4.507812 0.21875 3.515625 -0.128906 2.859375 -0.828125 C 2.203125 -1.535156 1.875 -2.570312 1.875 -3.9375 L 1.875 -11.828125 L 3.625 -11.828125 L 3.625 -3.984375 C 3.625 -2.191406 4.46875 -1.296875 6.15625 -1.296875 C 7.226562 -1.296875 8.070312 -1.644531 8.6875 -2.34375 C 9.3125 -3.039062 9.625 -4.175781 9.625 -5.75 L 9.625 -11.828125 L 11.375 -11.828125 L 11.375 0 L 9.71875 0 L 9.71875 -1.859375 L 9.5 -1.90625 C 9.09375 -1.1875 8.601562 -0.648438 8.03125 -0.296875 C 7.46875 0.046875 6.738281 0.21875 5.84375 0.21875 Z M 5.84375 0.21875 "/></g></g></g><g fill="#000000" fill-opacity="1"><g transform="translate(104.404471, 406.374561)"><g><path d="M 11.265625 -5.515625 L 3.140625 -5.515625 C 3.191406 -4.078125 3.535156 -3.019531 4.171875 -2.34375 C 4.816406 -1.675781 5.695312 -1.34375 6.8125 -1.34375 C 7.65625 -1.34375 8.332031 -1.488281 8.84375 -1.78125 C 9.351562 -2.082031 9.757812 -2.554688 10.0625 -3.203125 L 10.28125 -3.203125 L 11.421875 -2.53125 C 11.078125 -1.675781 10.523438 -1.003906 9.765625 -0.515625 C 9.015625 -0.0234375 8.03125 0.21875 6.8125 0.21875 C 5.664062 0.21875 4.679688 -0.00390625 3.859375 -0.453125 C 3.035156 -0.898438 2.398438 -1.582031 1.953125 -2.5 C 1.515625 -3.414062 1.296875 -4.550781 1.296875 -5.90625 C 1.296875 -7.25 1.53125 -8.378906 2 -9.296875 C 2.46875 -10.222656 3.109375 -10.910156 3.921875 -11.359375 C 4.734375 -11.816406 5.660156 -12.046875 6.703125 -12.046875 C 8.210938 -12.046875 9.390625 -11.617188 10.234375 -10.765625 C 11.085938 -9.910156 11.519531 -8.644531 11.53125 -6.96875 C 11.53125 -6.3125 11.515625 -5.867188 11.484375 -5.640625 Z M 9.8125 -6.96875 C 9.78125 -8.226562 9.5 -9.140625 8.96875 -9.703125 C 8.4375 -10.273438 7.679688 -10.5625 6.703125 -10.5625 C 5.660156 -10.5625 4.84375 -10.273438 4.25 -9.703125 C 3.664062 -9.128906 3.3125 -8.21875 3.1875 -6.96875 Z M 9.8125 -6.96875 "/></g></g></g><g fill="#000000" fill-opacity="1"><g transform="translate(117.009979, 406.374561)"><g><path d="M 5.390625 0.21875 C 4.648438 0.21875 3.960938 0.125 3.328125 -0.0625 C 2.691406 -0.257812 2.15625 -0.53125 1.71875 -0.875 C 1.289062 -1.21875 0.984375 -1.601562 0.796875 -2.03125 L 1.828125 -3.109375 L 2.0625 -3.109375 C 2.445312 -2.523438 2.910156 -2.082031 3.453125 -1.78125 C 3.992188 -1.488281 4.640625 -1.34375 5.390625 -1.34375 C 6.265625 -1.34375 6.925781 -1.507812 7.375 -1.84375 C 7.832031 -2.1875 8.0625 -2.660156 8.0625 -3.265625 C 8.0625 -3.734375 7.921875 -4.117188 7.640625 -4.421875 C 7.367188 -4.722656 6.925781 -4.953125 6.3125 -5.109375 L 4.3125 -5.59375 C 3.25 -5.851562 2.472656 -6.257812 1.984375 -6.8125 C 1.492188 -7.375 1.25 -8.066406 1.25 -8.890625 C 1.25 -9.523438 1.410156 -10.082031 1.734375 -10.5625 C 2.066406 -11.039062 2.539062 -11.40625 3.15625 -11.65625 C 3.78125 -11.914062 4.519531 -12.046875 5.375 -12.046875 C 6.457031 -12.046875 7.3125 -11.894531 7.9375 -11.59375 C 8.5625 -11.289062 9.050781 -10.867188 9.40625 -10.328125 L 8.421875 -9.359375 L 8.203125 -9.359375 C 7.816406 -9.796875 7.398438 -10.109375 6.953125 -10.296875 C 6.515625 -10.492188 5.988281 -10.59375 5.375 -10.59375 C 4.59375 -10.59375 3.992188 -10.453125 3.578125 -10.171875 C 3.160156 -9.890625 2.953125 -9.488281 2.953125 -8.96875 C 2.953125 -8.488281 3.097656 -8.097656 3.390625 -7.796875 C 3.691406 -7.503906 4.207031 -7.269531 4.9375 -7.09375 L 6.890625 -6.625 C 7.921875 -6.382812 8.664062 -5.976562 9.125 -5.40625 C 9.582031 -4.84375 9.8125 -4.140625 9.8125 -3.296875 C 9.8125 -2.597656 9.644531 -1.984375 9.3125 -1.453125 C 8.988281 -0.929688 8.492188 -0.519531 7.828125 -0.21875 C 7.160156 0.0703125 6.347656 0.21875 5.390625 0.21875 Z M 5.390625 0.21875 "/></g></g></g><g fill="#000000" fill-opacity="1"><g transform="translate(127.943328, 406.374561)"><g><path d="M 8 -1.875 L 8.546875 -0.625 C 8.273438 -0.34375 7.910156 -0.132812 7.453125 0 C 7.003906 0.144531 6.515625 0.21875 5.984375 0.21875 C 3.722656 0.21875 2.59375 -0.921875 2.59375 -3.203125 L 2.59375 -10.390625 L 0.53125 -10.390625 L 0.53125 -11.828125 L 2.59375 -11.828125 L 2.59375 -14.328125 L 4.34375 -14.625 L 4.34375 -11.828125 L 8.140625 -11.828125 L 8.140625 -10.390625 L 4.34375 -10.390625 L 4.34375 -3.375 C 4.34375 -2.019531 4.929688 -1.34375 6.109375 -1.34375 C 6.753906 -1.34375 7.304688 -1.519531 7.765625 -1.875 Z M 8 -1.875 "/></g></g></g><g fill="#000000" fill-opacity="1"><g transform="translate(136.947262, 406.374561)"><g><path d="M 2.9375 -14.109375 C 2.5625 -14.109375 2.257812 -14.222656 2.03125 -14.453125 C 1.800781 -14.679688 1.6875 -14.976562 1.6875 -15.34375 C 1.6875 -15.695312 1.800781 -15.988281 2.03125 -16.21875 C 2.257812 -16.457031 2.5625 -16.578125 2.9375 -16.578125 C 3.3125 -16.578125 3.613281 -16.457031 3.84375 -16.21875 C 4.070312 -15.988281 4.1875 -15.695312 4.1875 -15.34375 C 4.1875 -14.976562 4.070312 -14.679688 3.84375 -14.453125 C 3.613281 -14.222656 3.3125 -14.109375 2.9375 -14.109375 Z M 2.0625 0 L 2.0625 -11.828125 L 3.8125 -11.828125 L 3.8125 0 Z M 2.0625 0 "/></g></g></g><g fill="#000000" fill-opacity="1"><g transform="translate(142.810544, 406.374561)"><g><path d="M 6.78125 0.21875 C 5.664062 0.21875 4.695312 -0.015625 3.875 -0.484375 C 3.050781 -0.953125 2.414062 -1.644531 1.96875 -2.5625 C 1.519531 -3.476562 1.296875 -4.59375 1.296875 -5.90625 C 1.296875 -7.21875 1.519531 -8.332031 1.96875 -9.25 C 2.414062 -10.175781 3.050781 -10.875 3.875 -11.34375 C 4.695312 -11.8125 5.664062 -12.046875 6.78125 -12.046875 C 7.894531 -12.046875 8.863281 -11.8125 9.6875 -11.34375 C 10.519531 -10.875 11.160156 -10.175781 11.609375 -9.25 C 12.054688 -8.332031 12.28125 -7.21875 12.28125 -5.90625 C 12.28125 -4.59375 12.054688 -3.476562 11.609375 -2.5625 C 11.160156 -1.644531 10.519531 -0.953125 9.6875 -0.484375 C 8.863281 -0.015625 7.894531 0.21875 6.78125 0.21875 Z M 6.78125 -1.34375 C 7.957031 -1.34375 8.859375 -1.710938 9.484375 -2.453125 C 10.117188 -3.191406 10.4375 -4.34375 10.4375 -5.90625 C 10.4375 -7.46875 10.117188 -8.617188 9.484375 -9.359375 C 8.859375 -10.109375 7.957031 -10.484375 6.78125 -10.484375 C 5.601562 -10.484375 4.695312 -10.109375 4.0625 -9.359375 C 3.4375 -8.617188 3.125 -7.46875 3.125 -5.90625 C 3.125 -4.34375 3.4375 -3.191406 4.0625 -2.453125 C 4.695312 -1.710938 5.601562 -1.34375 6.78125 -1.34375 Z M 6.78125 -1.34375 "/></g></g></g><g fill="#000000" fill-opacity="1"><g transform="translate(156.38076, 406.374561)"><g><path d="M 2.0625 0 L 2.0625 -11.828125 L 3.71875 -11.828125 L 3.71875 -9.96875 L 3.9375 -9.921875 C 4.332031 -10.609375 4.835938 -11.132812 5.453125 -11.5 C 6.066406 -11.863281 6.8125 -12.046875 7.6875 -12.046875 C 9.101562 -12.046875 10.128906 -11.679688 10.765625 -10.953125 C 11.410156 -10.234375 11.734375 -9.117188 11.734375 -7.609375 L 11.734375 0 L 9.984375 0 L 9.984375 -7.5625 C 9.984375 -8.28125 9.890625 -8.851562 9.703125 -9.28125 C 9.523438 -9.71875 9.242188 -10.035156 8.859375 -10.234375 C 8.484375 -10.429688 7.984375 -10.53125 7.359375 -10.53125 C 6.296875 -10.53125 5.4375 -10.175781 4.78125 -9.46875 C 4.132812 -8.769531 3.8125 -7.632812 3.8125 -6.0625 L 3.8125 0 Z M 2.0625 0 "/></g></g></g><g fill="#000000" fill-opacity="1"><g transform="translate(169.993851, 406.374561)"><g/></g></g><g fill="#000000" fill-opacity="1"><g transform="translate(175.374774, 406.374561)"><g><path d="M 2.9375 -14.109375 C 2.5625 -14.109375 2.257812 -14.222656 2.03125 -14.453125 C 1.800781 -14.679688 1.6875 -14.976562 1.6875 -15.34375 C 1.6875 -15.695312 1.800781 -15.988281 2.03125 -16.21875 C 2.257812 -16.457031 2.5625 -16.578125 2.9375 -16.578125 C 3.3125 -16.578125 3.613281 -16.457031 3.84375 -16.21875 C 4.070312 -15.988281 4.1875 -15.695312 4.1875 -15.34375 C 4.1875 -14.976562 4.070312 -14.679688 3.84375 -14.453125 C 3.613281 -14.222656 3.3125 -14.109375 2.9375 -14.109375 Z M 2.0625 0 L 2.0625 -11.828125 L 3.8125 -11.828125 L 3.8125 0 Z M 2.0625 0 "/></g></g></g><g fill="#000000" fill-opacity="1"><g transform="translate(181.238056, 406.374561)"><g><path d="M 5.390625 0.21875 C 4.648438 0.21875 3.960938 0.125 3.328125 -0.0625 C 2.691406 -0.257812 2.15625 -0.53125 1.71875 -0.875 C 1.289062 -1.21875 0.984375 -1.601562 0.796875 -2.03125 L 1.828125 -3.109375 L 2.0625 -3.109375 C 2.445312 -2.523438 2.910156 -2.082031 3.453125 -1.78125 C 3.992188 -1.488281 4.640625 -1.34375 5.390625 -1.34375 C 6.265625 -1.34375 6.925781 -1.507812 7.375 -1.84375 C 7.832031 -2.1875 8.0625 -2.660156 8.0625 -3.265625 C 8.0625 -3.734375 7.921875 -4.117188 7.640625 -4.421875 C 7.367188 -4.722656 6.925781 -4.953125 6.3125 -5.109375 L 4.3125 -5.59375 C 3.25 -5.851562 2.472656 -6.257812 1.984375 -6.8125 C 1.492188 -7.375 1.25 -8.066406 1.25 -8.890625 C 1.25 -9.523438 1.410156 -10.082031 1.734375 -10.5625 C 2.066406 -11.039062 2.539062 -11.40625 3.15625 -11.65625 C 3.78125 -11.914062 4.519531 -12.046875 5.375 -12.046875 C 6.457031 -12.046875 7.3125 -11.894531 7.9375 -11.59375 C 8.5625 -11.289062 9.050781 -10.867188 9.40625 -10.328125 L 8.421875 -9.359375 L 8.203125 -9.359375 C 7.816406 -9.796875 7.398438 -10.109375 6.953125 -10.296875 C 6.515625 -10.492188 5.988281 -10.59375 5.375 -10.59375 C 4.59375 -10.59375 3.992188 -10.453125 3.578125 -10.171875 C 3.160156 -9.890625 2.953125 -9.488281 2.953125 -8.96875 C 2.953125 -8.488281 3.097656 -8.097656 3.390625 -7.796875 C 3.691406 -7.503906 4.207031 -7.269531 4.9375 -7.09375 L 6.890625 -6.625 C 7.921875 -6.382812 8.664062 -5.976562 9.125 -5.40625 C 9.582031 -4.84375 9.8125 -4.140625 9.8125 -3.296875 C 9.8125 -2.597656 9.644531 -1.984375 9.3125 -1.453125 C 8.988281 -0.929688 8.492188 -0.519531 7.828125 -0.21875 C 7.160156 0.0703125 6.347656 0.21875 5.390625 0.21875 Z M 5.390625 0.21875 "/></g></g></g><g fill="#000000" fill-opacity="1"><g transform="translate(192.171405, 406.374561)"><g/></g></g><g fill="#000000" fill-opacity="1"><g transform="translate(197.552328, 406.374561)"><g><path d="M 6.78125 0.21875 C 5.738281 0.21875 4.800781 -0.015625 3.96875 -0.484375 C 3.144531 -0.960938 2.492188 -1.664062 2.015625 -2.59375 C 1.535156 -3.519531 1.296875 -4.625 1.296875 -5.90625 C 1.296875 -7.195312 1.535156 -8.304688 2.015625 -9.234375 C 2.492188 -10.160156 3.144531 -10.859375 3.96875 -11.328125 C 4.800781 -11.804688 5.738281 -12.046875 6.78125 -12.046875 C 8.03125 -12.046875 9.023438 -11.8125 9.765625 -11.34375 C 10.503906 -10.875 11.039062 -10.242188 11.375 -9.453125 L 10.1875 -8.59375 L 9.96875 -8.59375 C 9.644531 -9.25 9.226562 -9.726562 8.71875 -10.03125 C 8.21875 -10.332031 7.570312 -10.484375 6.78125 -10.484375 C 6.050781 -10.484375 5.410156 -10.3125 4.859375 -9.96875 C 4.316406 -9.625 3.890625 -9.109375 3.578125 -8.421875 C 3.273438 -7.734375 3.125 -6.894531 3.125 -5.90625 C 3.125 -4.914062 3.273438 -4.078125 3.578125 -3.390625 C 3.890625 -2.710938 4.316406 -2.203125 4.859375 -1.859375 C 5.410156 -1.515625 6.050781 -1.34375 6.78125 -1.34375 C 7.601562 -1.34375 8.285156 -1.523438 8.828125 -1.890625 C 9.367188 -2.265625 9.789062 -2.851562 10.09375 -3.65625 L 10.328125 -3.65625 L 11.46875 -2.984375 C 11.164062 -1.984375 10.617188 -1.195312 9.828125 -0.625 C 9.035156 -0.0625 8.019531 0.21875 6.78125 0.21875 Z M 6.78125 0.21875 "/></g></g></g><g fill="#000000" fill-opacity="1"><g transform="translate(209.739802, 406.374561)"><g><path d="M 6.78125 0.21875 C 5.664062 0.21875 4.695312 -0.015625 3.875 -0.484375 C 3.050781 -0.953125 2.414062 -1.644531 1.96875 -2.5625 C 1.519531 -3.476562 1.296875 -4.59375 1.296875 -5.90625 C 1.296875 -7.21875 1.519531 -8.332031 1.96875 -9.25 C 2.414062 -10.175781 3.050781 -10.875 3.875 -11.34375 C 4.695312 -11.8125 5.664062 -12.046875 6.78125 -12.046875 C 7.894531 -12.046875 8.863281 -11.8125 9.6875 -11.34375 C 10.519531 -10.875 11.160156 -10.175781 11.609375 -9.25 C 12.054688 -8.332031 12.28125 -7.21875 12.28125 -5.90625 C 12.28125 -4.59375 12.054688 -3.476562 11.609375 -2.5625 C 11.160156 -1.644531 10.519531 -0.953125 9.6875 -0.484375 C 8.863281 -0.015625 7.894531 0.21875 6.78125 0.21875 Z M 6.78125 -1.34375 C 7.957031 -1.34375 8.859375 -1.710938 9.484375 -2.453125 C 10.117188 -3.191406 10.4375 -4.34375 10.4375 -5.90625 C 10.4375 -7.46875 10.117188 -8.617188 9.484375 -9.359375 C 8.859375 -10.109375 7.957031 -10.484375 6.78125 -10.484375 C 5.601562 -10.484375 4.695312 -10.109375 4.0625 -9.359375 C 3.4375 -8.617188 3.125 -7.46875 3.125 -5.90625 C 3.125 -4.34375 3.4375 -3.191406 4.0625 -2.453125 C 4.695312 -1.710938 5.601562 -1.34375 6.78125 -1.34375 Z M 6.78125 -1.34375 "/></g></g></g><g fill="#000000" fill-opacity="1"><g transform="translate(223.310018, 406.374561)"><g><path d="M 2.0625 0 L 2.0625 -11.828125 L 3.71875 -11.828125 L 3.71875 -10.078125 L 3.9375 -10.03125 C 4.34375 -10.695312 4.828125 -11.195312 5.390625 -11.53125 C 5.960938 -11.875 6.644531 -12.046875 7.4375 -12.046875 C 8.351562 -12.046875 9.0625 -11.875 9.5625 -11.53125 C 10.0625 -11.1875 10.453125 -10.625 10.734375 -9.84375 L 10.953125 -9.84375 C 11.359375 -10.570312 11.859375 -11.117188 12.453125 -11.484375 C 13.054688 -11.859375 13.789062 -12.046875 14.65625 -12.046875 C 15.875 -12.046875 16.78125 -11.71875 17.375 -11.0625 C 17.976562 -10.40625 18.28125 -9.40625 18.28125 -8.0625 L 18.28125 0 L 16.53125 0 L 16.53125 -8.015625 C 16.53125 -8.867188 16.347656 -9.5 15.984375 -9.90625 C 15.628906 -10.320312 15.050781 -10.53125 14.25 -10.53125 C 13.300781 -10.53125 12.53125 -10.1875 11.9375 -9.5 C 11.34375 -8.8125 11.046875 -7.679688 11.046875 -6.109375 L 11.046875 0 L 9.296875 0 L 9.296875 -8.015625 C 9.296875 -8.867188 9.113281 -9.5 8.75 -9.90625 C 8.394531 -10.320312 7.816406 -10.53125 7.015625 -10.53125 C 6.066406 -10.53125 5.296875 -10.195312 4.703125 -9.53125 C 4.109375 -8.863281 3.8125 -7.785156 3.8125 -6.296875 L 3.8125 0 Z M 2.0625 0 "/></g></g></g><g fill="#000000" fill-opacity="1"><g transform="translate(243.461692, 406.374561)"><g><path d="M 2.0625 4.796875 L 2.0625 -11.828125 L 3.8125 -11.828125 L 3.8125 -10.0625 L 4.03125 -10.015625 C 4.90625 -11.367188 6.195312 -12.046875 7.90625 -12.046875 C 8.882812 -12.046875 9.742188 -11.820312 10.484375 -11.375 C 11.222656 -10.925781 11.796875 -10.238281 12.203125 -9.3125 C 12.609375 -8.394531 12.8125 -7.257812 12.8125 -5.90625 C 12.8125 -4.550781 12.59375 -3.414062 12.15625 -2.5 C 11.726562 -1.59375 11.132812 -0.910156 10.375 -0.453125 C 9.625 -0.00390625 8.753906 0.21875 7.765625 0.21875 C 6.972656 0.21875 6.265625 0.0820312 5.640625 -0.1875 C 5.015625 -0.46875 4.476562 -0.925781 4.03125 -1.5625 L 3.8125 -1.515625 L 3.8125 4.796875 Z M 7.390625 -1.34375 C 9.785156 -1.34375 10.984375 -2.863281 10.984375 -5.90625 C 10.984375 -8.957031 9.785156 -10.484375 7.390625 -10.484375 C 6.679688 -10.484375 6.0625 -10.320312 5.53125 -10 C 5 -9.675781 4.578125 -9.171875 4.265625 -8.484375 C 3.960938 -7.804688 3.8125 -6.945312 3.8125 -5.90625 C 3.8125 -4.875 3.960938 -4.015625 4.265625 -3.328125 C 4.578125 -2.640625 5 -2.132812 5.53125 -1.8125 C 6.0625 -1.5 6.679688 -1.34375 7.390625 -1.34375 Z M 7.390625 -1.34375 "/></g></g></g><g fill="#000000" fill-opacity="1"><g transform="translate(257.567857, 406.374561)"><g><path d="M 4.875 0.21875 C 3.707031 0.21875 2.796875 -0.0820312 2.140625 -0.6875 C 1.492188 -1.289062 1.171875 -2.160156 1.171875 -3.296875 C 1.171875 -3.992188 1.3125 -4.582031 1.59375 -5.0625 C 1.882812 -5.539062 2.332031 -5.929688 2.9375 -6.234375 C 3.550781 -6.546875 4.347656 -6.785156 5.328125 -6.953125 C 6.179688 -7.085938 6.832031 -7.242188 7.28125 -7.421875 C 7.726562 -7.609375 8.03125 -7.8125 8.1875 -8.03125 C 8.34375 -8.25 8.421875 -8.523438 8.421875 -8.859375 C 8.421875 -9.398438 8.234375 -9.8125 7.859375 -10.09375 C 7.492188 -10.382812 6.90625 -10.53125 6.09375 -10.53125 C 5.320312 -10.53125 4.660156 -10.378906 4.109375 -10.078125 C 3.566406 -9.785156 3.066406 -9.34375 2.609375 -8.75 L 2.40625 -8.75 L 1.546875 -9.96875 C 2.046875 -10.601562 2.679688 -11.109375 3.453125 -11.484375 C 4.222656 -11.859375 5.101562 -12.046875 6.09375 -12.046875 C 7.476562 -12.046875 8.5 -11.738281 9.15625 -11.125 C 9.820312 -10.519531 10.15625 -9.675781 10.15625 -8.59375 L 10.15625 -2.328125 C 10.15625 -1.671875 10.4375 -1.34375 11 -1.34375 C 11.1875 -1.34375 11.363281 -1.375 11.53125 -1.4375 L 11.6875 -1.390625 L 11.890625 -0.1875 C 11.753906 -0.09375 11.582031 -0.0234375 11.375 0.015625 C 11.164062 0.0546875 10.953125 0.078125 10.734375 0.078125 C 10.078125 0.078125 9.582031 -0.0625 9.25 -0.34375 C 8.914062 -0.625 8.707031 -1.046875 8.625 -1.609375 L 8.390625 -1.625 C 8.054688 -1.007812 7.601562 -0.546875 7.03125 -0.234375 C 6.457031 0.0664062 5.738281 0.21875 4.875 0.21875 Z M 5.265625 -1.171875 C 5.921875 -1.171875 6.488281 -1.320312 6.96875 -1.625 C 7.457031 -1.925781 7.828125 -2.351562 8.078125 -2.90625 C 8.335938 -3.457031 8.46875 -4.09375 8.46875 -4.8125 L 8.46875 -6.3125 L 8.265625 -6.359375 C 8.003906 -6.171875 7.679688 -6.015625 7.296875 -5.890625 C 6.921875 -5.765625 6.394531 -5.648438 5.71875 -5.546875 C 5.03125 -5.453125 4.484375 -5.304688 4.078125 -5.109375 C 3.671875 -4.921875 3.378906 -4.675781 3.203125 -4.375 C 3.035156 -4.082031 2.953125 -3.722656 2.953125 -3.296875 C 2.953125 -2.597656 3.15625 -2.066406 3.5625 -1.703125 C 3.976562 -1.347656 4.546875 -1.171875 5.265625 -1.171875 Z M 5.265625 -1.171875 "/></g></g></g><g fill="#000000" fill-opacity="1"><g transform="translate(269.798218, 406.374561)"><g><path d="M 2.0625 0 L 2.0625 -11.828125 L 3.71875 -11.828125 L 3.71875 -9.96875 L 3.9375 -9.921875 C 4.488281 -11.265625 5.523438 -11.9375 7.046875 -11.9375 C 7.859375 -11.9375 8.460938 -11.785156 8.859375 -11.484375 L 8.421875 -10.015625 L 8.203125 -9.96875 C 7.753906 -10.1875 7.269531 -10.296875 6.75 -10.296875 C 5.800781 -10.296875 5.070312 -9.941406 4.5625 -9.234375 C 4.0625 -8.523438 3.8125 -7.378906 3.8125 -5.796875 L 3.8125 0 Z M 2.0625 0 "/></g></g></g><g fill="#000000" fill-opacity="1"><g transform="translate(278.93078, 406.374561)"><g><path d="M 4.875 0.21875 C 3.707031 0.21875 2.796875 -0.0820312 2.140625 -0.6875 C 1.492188 -1.289062 1.171875 -2.160156 1.171875 -3.296875 C 1.171875 -3.992188 1.3125 -4.582031 1.59375 -5.0625 C 1.882812 -5.539062 2.332031 -5.929688 2.9375 -6.234375 C 3.550781 -6.546875 4.347656 -6.785156 5.328125 -6.953125 C 6.179688 -7.085938 6.832031 -7.242188 7.28125 -7.421875 C 7.726562 -7.609375 8.03125 -7.8125 8.1875 -8.03125 C 8.34375 -8.25 8.421875 -8.523438 8.421875 -8.859375 C 8.421875 -9.398438 8.234375 -9.8125 7.859375 -10.09375 C 7.492188 -10.382812 6.90625 -10.53125 6.09375 -10.53125 C 5.320312 -10.53125 4.660156 -10.378906 4.109375 -10.078125 C 3.566406 -9.785156 3.066406 -9.34375 2.609375 -8.75 L 2.40625 -8.75 L 1.546875 -9.96875 C 2.046875 -10.601562 2.679688 -11.109375 3.453125 -11.484375 C 4.222656 -11.859375 5.101562 -12.046875 6.09375 -12.046875 C 7.476562 -12.046875 8.5 -11.738281 9.15625 -11.125 C 9.820312 -10.519531 10.15625 -9.675781 10.15625 -8.59375 L 10.15625 -2.328125 C 10.15625 -1.671875 10.4375 -1.34375 11 -1.34375 C 11.1875 -1.34375 11.363281 -1.375 11.53125 -1.4375 L 11.6875 -1.390625 L 11.890625 -0.1875 C 11.753906 -0.09375 11.582031 -0.0234375 11.375 0.015625 C 11.164062 0.0546875 10.953125 0.078125 10.734375 0.078125 C 10.078125 0.078125 9.582031 -0.0625 9.25 -0.34375 C 8.914062 -0.625 8.707031 -1.046875 8.625 -1.609375 L 8.390625 -1.625 C 8.054688 -1.007812 7.601562 -0.546875 7.03125 -0.234375 C 6.457031 0.0664062 5.738281 0.21875 4.875 0.21875 Z M 5.265625 -1.171875 C 5.921875 -1.171875 6.488281 -1.320312 6.96875 -1.625 C 7.457031 -1.925781 7.828125 -2.351562 8.078125 -2.90625 C 8.335938 -3.457031 8.46875 -4.09375 8.46875 -4.8125 L 8.46875 -6.3125 L 8.265625 -6.359375 C 8.003906 -6.171875 7.679688 -6.015625 7.296875 -5.890625 C 6.921875 -5.765625 6.394531 -5.648438 5.71875 -5.546875 C 5.03125 -5.453125 4.484375 -5.304688 4.078125 -5.109375 C 3.671875 -4.921875 3.378906 -4.675781 3.203125 -4.375 C 3.035156 -4.082031 2.953125 -3.722656 2.953125 -3.296875 C 2.953125 -2.597656 3.15625 -2.066406 3.5625 -1.703125 C 3.976562 -1.347656 4.546875 -1.171875 5.265625 -1.171875 Z M 5.265625 -1.171875 "/></g></g></g><g fill="#000000" fill-opacity="1"><g transform="translate(291.161142, 406.374561)"><g><path d="M 8 -1.875 L 8.546875 -0.625 C 8.273438 -0.34375 7.910156 -0.132812 7.453125 0 C 7.003906 0.144531 6.515625 0.21875 5.984375 0.21875 C 3.722656 0.21875 2.59375 -0.921875 2.59375 -3.203125 L 2.59375 -10.390625 L 0.53125 -10.390625 L 0.53125 -11.828125 L 2.59375 -11.828125 L 2.59375 -14.328125 L 4.34375 -14.625 L 4.34375 -11.828125 L 8.140625 -11.828125 L 8.140625 -10.390625 L 4.34375 -10.390625 L 4.34375 -3.375 C 4.34375 -2.019531 4.929688 -1.34375 6.109375 -1.34375 C 6.753906 -1.34375 7.304688 -1.519531 7.765625 -1.875 Z M 8 -1.875 "/></g></g></g><g fill="#000000" fill-opacity="1"><g transform="translate(300.165076, 406.374561)"><g><path d="M 2.9375 -14.109375 C 2.5625 -14.109375 2.257812 -14.222656 2.03125 -14.453125 C 1.800781 -14.679688 1.6875 -14.976562 1.6875 -15.34375 C 1.6875 -15.695312 1.800781 -15.988281 2.03125 -16.21875 C 2.257812 -16.457031 2.5625 -16.578125 2.9375 -16.578125 C 3.3125 -16.578125 3.613281 -16.457031 3.84375 -16.21875 C 4.070312 -15.988281 4.1875 -15.695312 4.1875 -15.34375 C 4.1875 -14.976562 4.070312 -14.679688 3.84375 -14.453125 C 3.613281 -14.222656 3.3125 -14.109375 2.9375 -14.109375 Z M 2.0625 0 L 2.0625 -11.828125 L 3.8125 -11.828125 L 3.8125 0 Z M 2.0625 0 "/></g></g></g><g fill="#000000" fill-opacity="1"><g transform="translate(306.028358, 406.374561)"><g><path d="M 7.484375 0 L 5.078125 0 L 0.578125 -11.828125 L 2.46875 -11.828125 L 6.1875 -2 L 6.4375 -2 L 10.125 -11.828125 L 11.96875 -11.828125 Z M 7.484375 0 "/></g></g></g><g fill="#000000" fill-opacity="1"><g transform="translate(318.558851, 406.374561)"><g><path d="M 11.265625 -5.515625 L 3.140625 -5.515625 C 3.191406 -4.078125 3.535156 -3.019531 4.171875 -2.34375 C 4.816406 -1.675781 5.695312 -1.34375 6.8125 -1.34375 C 7.65625 -1.34375 8.332031 -1.488281 8.84375 -1.78125 C 9.351562 -2.082031 9.757812 -2.554688 10.0625 -3.203125 L 10.28125 -3.203125 L 11.421875 -2.53125 C 11.078125 -1.675781 10.523438 -1.003906 9.765625 -0.515625 C 9.015625 -0.0234375 8.03125 0.21875 6.8125 0.21875 C 5.664062 0.21875 4.679688 -0.00390625 3.859375 -0.453125 C 3.035156 -0.898438 2.398438 -1.582031 1.953125 -2.5 C 1.515625 -3.414062 1.296875 -4.550781 1.296875 -5.90625 C 1.296875 -7.25 1.53125 -8.378906 2 -9.296875 C 2.46875 -10.222656 3.109375 -10.910156 3.921875 -11.359375 C 4.734375 -11.816406 5.660156 -12.046875 6.703125 -12.046875 C 8.210938 -12.046875 9.390625 -11.617188 10.234375 -10.765625 C 11.085938 -9.910156 11.519531 -8.644531 11.53125 -6.96875 C 11.53125 -6.3125 11.515625 -5.867188 11.484375 -5.640625 Z M 9.8125 -6.96875 C 9.78125 -8.226562 9.5 -9.140625 8.96875 -9.703125 C 8.4375 -10.273438 7.679688 -10.5625 6.703125 -10.5625 C 5.660156 -10.5625 4.84375 -10.273438 4.25 -9.703125 C 3.664062 -9.128906 3.3125 -8.21875 3.1875 -6.96875 Z M 9.8125 -6.96875 "/></g></g></g><g fill="#000000" fill-opacity="1"><g transform="translate(331.164359, 406.374561)"><g/></g></g><g fill="#000000" fill-opacity="1"><g transform="translate(336.545293, 406.374561)"><g><path d="M 4.28125 -5.203125 L 2.484375 -5.203125 L 2.484375 -15.671875 L 4.28125 -15.671875 Z M 3.375 0.109375 C 2.96875 0.109375 2.644531 -0.00390625 2.40625 -0.234375 C 2.175781 -0.460938 2.0625 -0.765625 2.0625 -1.140625 C 2.0625 -1.515625 2.175781 -1.820312 2.40625 -2.0625 C 2.644531 -2.300781 2.96875 -2.421875 3.375 -2.421875 C 3.789062 -2.421875 4.113281 -2.304688 4.34375 -2.078125 C 4.582031 -1.847656 4.703125 -1.546875 4.703125 -1.171875 C 4.703125 -0.785156 4.582031 -0.472656 4.34375 -0.234375 C 4.101562 -0.00390625 3.78125 0.109375 3.375 0.109375 Z M 3.375 0.109375 "/></g></g></g><path stroke-linecap="butt" transform="matrix(0, 0.748512, -0.748512, 0, 189.388927, 317.251679)" fill="none" stroke-linejoin="miter" d="M -0.00224253 2.001708 L 89.002483 2.001708 " stroke="#000000" stroke-width="4" stroke-opacity="1" stroke-miterlimit="4"/><path stroke-linecap="round" transform="matrix(0, 0.748512, -0.748512, 0, 189.388927, 317.251679)" fill="none" stroke-linejoin="round" d="M 81.002234 -3.999784 L 89.002483 2.001708 L 81.002234 7.99798 " stroke="#000000" stroke-width="4" stroke-opacity="1" stroke-miterlimit="4"/></svg>